<?xml version="1.0" encoding="UTF-8"?>
<svg version="1.1" xmlns="http://www.w3.org/2000/svg" width="763" height="271">
<path d="M0 0 C4.27421357 3.59500468 7.63445546 6.7217878 9.55859375 12.109375 C9.55859375 12.769375 9.55859375 13.429375 9.55859375 14.109375 C22.79407247 10.73931712 32.03594995 7.2234865 40.55859375 -3.890625 C41.09371582 -4.91470459 41.62883789 -5.93878418 42.18017578 -6.99389648 C44.55859375 -9.890625 44.55859375 -9.890625 48.14282227 -10.63525391 C49.57415746 -10.66128679 51.00638073 -10.65318419 52.4375 -10.6171875 C53.20480942 -10.61818451 53.97211884 -10.61918152 54.76268005 -10.62020874 C56.38754622 -10.61553275 58.01242753 -10.59610597 59.63696289 -10.56298828 C62.0894181 -10.51622894 64.53745306 -10.52180845 66.99023438 -10.53515625 C79.49112947 -10.49057928 89.3049656 -8.93861696 98.55859375 0.109375 C99.69296875 -0.509375 100.82734375 -1.128125 101.99609375 -1.765625 C114.09060507 -7.75992746 128.43563488 -7.06176189 141.61328125 -7.0078125 C142.60027323 -7.00562021 142.60027323 -7.00562021 143.60720444 -7.00338364 C158.82638877 -6.96716185 174.03635998 -6.60206985 189.24804688 -6.14599609 C193.01413105 -6.03347926 196.78045186 -5.93398888 200.54696846 -5.83719063 C203.49654554 -5.75940794 206.44583494 -5.67327219 209.39510727 -5.5847435 C210.78643343 -5.54429553 212.17784926 -5.50680927 213.56933975 -5.47247696 C215.49064062 -5.42419549 217.4116043 -5.3630173 219.33251953 -5.30126953 C220.41816193 -5.27018097 221.50380432 -5.23909241 222.62234497 -5.20706177 C225.66255886 -4.87942078 227.85478634 -4.31251584 230.55859375 -2.890625 C232.37109375 0.234375 232.37109375 0.234375 233.55859375 3.109375 C234.595 2.68785156 235.63140625 2.26632813 236.69921875 1.83203125 C238.06895466 1.27850784 239.43874943 0.72513006 240.80859375 0.171875 C241.49050781 -0.10591797 242.17242188 -0.38371094 242.875 -0.66992188 C257.61141133 -6.60740799 276.23799127 -5.69497825 290.76171875 0.46875 C296.20200846 3.0180645 300.71817971 5.44601509 304.55859375 10.109375 C307.05749934 8.88708422 309.4125239 7.60030125 311.80859375 6.171875 C326.97723718 -1.31431316 347.78970771 -0.76961202 363.55859375 4.109375 C369.91925174 6.57325625 375.98295888 9.94284688 380.55859375 15.109375 C380.55859375 15.769375 380.55859375 16.429375 380.55859375 17.109375 C381.21859375 17.17125 381.87859375 17.233125 382.55859375 17.296875 C389.23681532 19.10556001 394.09857113 23.3482412 398.765625 28.29296875 C400.65396098 30.20598886 402.65977622 31.85391123 404.74609375 33.546875 C410.4678735 38.47026687 413.06722293 44.55020015 413.8671875 51.97265625 C414.79683064 76.84765297 402.78741363 102.96367126 395.37792969 126.35498047 C393.90928489 130.99248257 392.45643239 135.63472841 391.00894165 140.27886963 C389.952084 143.66023022 388.88372959 147.0378711 387.81182861 150.41448975 C387.31698935 151.97960286 386.8262578 153.54602177 386.34002686 155.11383057 C382.12607967 168.67474378 377.07907348 181.54473652 364.12109375 188.859375 C343.36860394 198.28666797 316.7833078 195.47402198 295.55859375 189.109375 C295.21248047 190.67171875 295.21248047 190.67171875 294.859375 192.265625 C286.63258761 228.72671243 286.63258761 228.72671243 272.55859375 238.109375 C268.92304794 239.3212236 265.53451623 239.3703552 261.74609375 239.421875 C261.04677734 239.45087891 260.34746094 239.47988281 259.62695312 239.50976562 C254.47759664 239.57238642 251.67008836 238.44418547 247.55859375 235.109375 C244.55859375 231.709375 244.55859375 231.709375 244.55859375 229.109375 C243.75421875 229.233125 242.94984375 229.356875 242.12109375 229.484375 C238.29303672 229.08142163 237.4464418 228.47707499 234.49609375 226.234375 C229.67674764 222.73830697 225.33822205 222.27225462 219.5234375 221.59375 C215.48435272 220.93387317 213.58690165 219.81891365 210.55859375 217.109375 C210.06359375 216.3875 209.56859375 215.665625 209.05859375 214.921875 C207.59232789 212.77873611 207.59232789 212.77873611 204.37109375 212.359375 C203.44296875 212.276875 202.51484375 212.194375 201.55859375 212.109375 C201.02234375 213.0375 200.48609375 213.965625 199.93359375 214.921875 C197.23858165 218.53886493 195.84561197 219.75975815 191.55859375 221.109375 C186.01133574 221.24293659 180.9541007 220.72920425 176.55859375 217.109375 C174.24609375 214.421875 174.24609375 214.421875 172.55859375 212.109375 C171.96111328 212.84994141 171.96111328 212.84994141 171.3515625 213.60546875 C170.82175781 214.24613281 170.29195313 214.88679687 169.74609375 215.546875 C169.22402344 216.18496094 168.70195312 216.82304687 168.1640625 217.48046875 C165.43071593 220.25371819 162.45756622 220.31355245 158.74609375 220.421875 C153.89685543 220.40066842 151.41579047 219.11987 147.55859375 216.109375 C144.5451443 215.82922032 144.5451443 215.82922032 142.43359375 217.546875 C137.32536827 220.3230845 132.4130622 220.41338622 126.74609375 219.484375 C123.09688798 217.9102078 121.61498319 216.48185369 119.55859375 213.109375 C119.55859375 212.119375 119.55859375 211.129375 119.55859375 210.109375 C118.89859375 210.109375 118.23859375 210.109375 117.55859375 210.109375 C117.47609375 210.686875 117.39359375 211.264375 117.30859375 211.859375 C116.14161462 215.36031238 113.8267295 217.47530712 110.55859375 219.109375 C105.6443912 219.56897668 101.69483756 219.68821619 97.24609375 217.421875 C95.91578125 216.7721875 95.91578125 216.7721875 94.55859375 216.109375 C92.87970934 217.08872424 91.21521136 218.09281419 89.55859375 219.109375 C83.35523402 219.96683599 77.99578633 219.35077827 72.55859375 216.109375 C69.78410133 213.3976539 67.29954729 210.59128209 65.55859375 207.109375 C65.31625 207.65207031 65.07390625 208.19476563 64.82421875 208.75390625 C62.58081717 213.54270578 60.90237592 216.84104383 55.74609375 218.796875 C49.79468373 219.64707643 45.73639806 219.28666401 40.55859375 216.109375 C38.64940864 214.46352576 37.68367058 213.35952865 36.55859375 211.109375 C36.47609375 211.7075 36.39359375 212.305625 36.30859375 212.921875 C35.32911564 215.77868615 34.12157707 216.57158501 31.55859375 218.109375 C26.58135006 220.06472074 21.16580227 219.68554409 16.24609375 217.921875 C13.3154663 215.94540532 12.09161204 214.26057926 10.55859375 211.109375 C10.55859375 212.429375 10.55859375 213.749375 10.55859375 215.109375 C4.50400032 218.69728222 -0.37613543 220.29283745 -7.44140625 219.109375 C-11.44771634 217.06979895 -14.01339402 214.88628291 -16.44140625 211.109375 C-17.03888672 211.84994141 -17.03888672 211.84994141 -17.6484375 212.60546875 C-18.17824219 213.24613281 -18.70804687 213.88679687 -19.25390625 214.546875 C-19.77597656 215.18496094 -20.29804688 215.82304687 -20.8359375 216.48046875 C-23.60250329 219.28742236 -26.56805228 219.29101596 -30.31640625 219.359375 C-35.61162664 219.30542079 -38.38415801 218.02474405 -42.25390625 214.421875 C-42.64578125 213.98875 -43.03765625 213.555625 -43.44140625 213.109375 C-43.77140625 214.099375 -44.10140625 215.089375 -44.44140625 216.109375 C-49.41489271 219.3005176 -54.54093609 220.88868238 -60.44140625 220.109375 C-64.62050757 218.50202834 -67.0708214 216.92865059 -69.44140625 213.109375 C-69.75078125 214.0065625 -69.75078125 214.0065625 -70.06640625 214.921875 C-72.0980907 218.15410026 -73.82930129 218.84196975 -77.44140625 220.109375 C-82.84734897 220.77608116 -87.06771946 220.78416851 -92.00390625 218.359375 C-94.28029726 216.25809099 -95.52701006 215.03544281 -96.44140625 212.109375 C-96.44140625 210.789375 -96.44140625 209.469375 -96.44140625 208.109375 C-100.36012498 209.69552306 -102.80428557 211.32690712 -105.37890625 214.609375 C-109.30900231 219.48598635 -114.22873445 221.3869713 -120.44140625 222.109375 C-128.73028389 222.7184144 -137.21411033 222.05640574 -143.87890625 216.609375 C-146.44140625 214.109375 -146.44140625 214.109375 -148.00390625 212.234375 C-149.47369611 210.83866367 -149.47369611 210.83866367 -152.00390625 211.171875 C-154.577668 211.84620649 -154.577668 211.84620649 -155.3828125 214.0078125 C-157.68182428 218.57190231 -162.67694612 220.50605892 -167.3203125 222.09375 C-178.69217223 225.17272096 -187.45152859 224.66719248 -198.44140625 220.109375 C-205.04032956 216.27360509 -208.91947105 209.91298297 -211.19140625 202.7421875 C-212.22223374 198.49002412 -212.66662295 194.5011007 -212.44140625 190.109375 C-213.36759766 189.90634766 -213.36759766 189.90634766 -214.3125 189.69921875 C-222.57119929 187.59997555 -228.42118845 183.65813091 -233.94140625 177.171875 C-237.24778753 174.44411044 -239.48873014 174.69609007 -243.6484375 174.93359375 C-244.24011719 174.99160156 -244.83179688 175.04960937 -245.44140625 175.109375 C-244.94640625 178.574375 -244.94640625 178.574375 -244.44140625 182.109375 C-256.30617617 193.24907565 -272.2921079 196.8581712 -288.19140625 197.359375 C-298.46937837 197.01866874 -308.494153 194.14961472 -316.46484375 187.39453125 C-323.47052595 179.31236618 -322.73216781 166.28527127 -323.40283203 156.11547852 C-323.48115265 154.99490051 -323.55947327 153.87432251 -323.64016724 152.7197876 C-323.89449943 149.05963949 -324.14087195 145.39900832 -324.38671875 141.73828125 C-324.56287707 139.16720757 -324.73938663 136.59615793 -324.91622925 134.02513123 C-325.28445205 128.65362547 -325.64889657 123.2818836 -326.01025391 117.90991211 C-326.42557271 111.73662357 -326.84824168 105.5638715 -327.27482998 99.39135224 C-327.6882393 93.40678163 -328.0961853 87.42185325 -328.50182724 81.43675041 C-328.67350047 78.91112995 -328.84652225 76.38560075 -329.02096939 73.86017036 C-329.54302786 66.27904585 -330.03428319 58.69760991 -330.44140625 51.109375 C-330.4850808 50.3087904 -330.52875534 49.5082058 -330.57375336 48.68336105 C-330.67110099 46.68835316 -330.73182298 44.69164351 -330.78857422 42.69506836 C-330.81837372 41.67980576 -330.84817322 40.66454315 -330.87887573 39.61851501 C-330.31368122 36.3767982 -329.08179791 35.28139229 -326.56640625 33.234375 C-323.01625655 31.109375 -323.01625655 31.109375 -320.44140625 31.109375 C-320.35761719 30.50996094 -320.27382813 29.91054688 -320.1875 29.29296875 C-318.53842972 24.46663217 -312.27565908 22.02507064 -307.9375 19.859375 C-307.11378906 19.4675 -306.29007812 19.075625 -305.44140625 18.671875 C-301.90602009 16.97772231 -299.02630008 15.10379272 -296.00390625 12.609375 C-281.59513162 1.04212137 -262.26199537 -0.4605772 -244.44140625 1.109375 C-236.90500495 2.23159143 -230.90649677 4.96183065 -225.09765625 9.84765625 C-222.97990308 11.46094463 -221.08226245 11.94432149 -218.44140625 12.109375 C-218.29703125 11.243125 -218.15265625 10.376875 -218.00390625 9.484375 C-215.43051117 3.92584162 -210.56236173 1.41019328 -205.0234375 -0.8984375 C-202.83877281 -1.6522749 -200.68125666 -2.32248776 -198.44140625 -2.890625 C-197.72597656 -3.07367187 -197.01054687 -3.25671875 -196.2734375 -3.4453125 C-181.26302242 -5.80557087 -166.92096848 -4.31069122 -154.37890625 4.64453125 C-153.73953125 5.12792969 -153.10015625 5.61132812 -152.44140625 6.109375 C-151.69890625 6.66496094 -150.95640625 7.22054687 -150.19140625 7.79296875 C-149.61390625 8.22738281 -149.03640625 8.66179688 -148.44140625 9.109375 C-147.85875 8.60148437 -147.27609375 8.09359375 -146.67578125 7.5703125 C-132.41973528 -4.39938647 -118.27979463 -8.60324771 -99.78125 -7.71484375 C-89.1641906 -6.5508472 -80.6226135 -2.72555764 -72.44140625 4.109375 C-69.00279081 2.85134496 -66.26206883 1.39602093 -63.31640625 -0.765625 C-44.88020431 -13.28026539 -17.75403375 -13.74872373 0 0 Z M-161.44140625 81.109375 C-163.13228847 83.08894442 -164.79971097 85.08882696 -166.44140625 87.109375 C-163.73137332 89.78269213 -163.73137332 89.78269213 -160.44140625 91.109375 C-160.44140625 87.809375 -160.44140625 84.509375 -160.44140625 81.109375 C-160.77140625 81.109375 -161.10140625 81.109375 -161.44140625 81.109375 Z M14.55859375 92.109375 C14.67651313 98.69315907 14.80133702 105.27678657 14.9309082 111.86035156 C14.97415712 114.09892832 15.01583911 116.33753594 15.0559082 118.57617188 C15.11385449 121.79827156 15.17747841 125.02021739 15.2421875 128.2421875 C15.25889999 129.23928741 15.27561249 130.23638733 15.29283142 131.26370239 C15.39275664 135.97570269 15.59966667 140.47512953 16.55859375 145.109375 C18.86859375 145.439375 21.17859375 145.769375 23.55859375 146.109375 C23.35000732 145.4896582 23.1414209 144.86994141 22.92651367 144.23144531 C19.87103839 133.88315909 19.99961999 123.56866179 19.87109375 112.859375 C19.83785704 110.93877971 19.80336172 109.01820577 19.76757812 107.09765625 C19.68340853 102.43501508 19.61626049 97.77241617 19.55859375 93.109375 C17.90859375 92.779375 16.25859375 92.449375 14.55859375 92.109375 Z M236.55859375 119.109375 C237.55859375 122.109375 237.55859375 122.109375 237.55859375 122.109375 Z M144.55859375 211.109375 C145.55859375 213.109375 145.55859375 213.109375 145.55859375 213.109375 Z M93.55859375 213.109375 C94.55859375 215.109375 94.55859375 215.109375 94.55859375 215.109375 Z " fill="#DAB194" transform="translate(338.44140625,28.890625)"/>
<path d="M0 0 C5.77973953 4.70443916 10.16928279 9.61540728 11.03517151 17.25491333 C11.08100876 18.40458588 11.12684601 19.55425842 11.17407227 20.73876953 C11.23077087 22.05700714 11.28746948 23.37524475 11.34588623 24.73342896 C11.39882137 26.17904724 11.45148657 27.62467543 11.50390625 29.0703125 C11.5651073 30.58473378 11.62699151 32.09912758 11.68951416 33.61349487 C11.85438686 37.67326376 12.00717659 41.73339918 12.15662003 45.79376221 C12.24984206 48.30823976 12.3460331 50.82258633 12.44320679 53.33691406 C13.27702219 74.94943932 14.01165362 96.56417246 14.5 118.1875 C14.52732208 119.26807678 14.55464417 120.34865356 14.58279419 121.4619751 C14.65609605 124.45371711 14.71548782 127.4453562 14.76953125 130.4375 C14.79219055 131.30784882 14.81484985 132.17819763 14.8381958 133.07492065 C14.86575947 135.11287981 14.78718254 137.15179357 14.6875 139.1875 C12.20313883 141.67186117 11.39462065 141.44679369 7.96875 141.49609375 C7.03675781 141.52123047 6.10476563 141.54636719 5.14453125 141.57226562 C3.17324286 141.6074207 1.20188096 141.63867107 -0.76953125 141.66601562 C-1.70152344 141.69244141 -2.63351562 141.71886719 -3.59375 141.74609375 C-4.87862305 141.76627563 -4.87862305 141.76627563 -6.18945312 141.78686523 C-6.89005859 141.91907471 -7.59066406 142.05128418 -8.3125 142.1875 C-8.9725 143.1775 -9.6325 144.1675 -10.3125 145.1875 C-11.01375 144.89875 -11.715 144.61 -12.4375 144.3125 C-13.860625 143.755625 -13.860625 143.755625 -15.3125 143.1875 C-16.6428125 142.630625 -16.6428125 142.630625 -18 142.0625 C-24.25218897 140.41097839 -29.8858294 140.43503187 -35.875 142.9375 C-39.46600541 144.26585421 -41.47129823 144.24618613 -45.0625 142.875 C-49.69761325 140.41158317 -52.44664875 137.07702983 -54.3125 132.1875 C-55.60531475 125.91043721 -55.42653531 119.63641411 -55.375 113.25 C-55.37048828 112.18458984 -55.36597656 111.11917969 -55.36132812 110.02148438 C-55.34961787 107.41009709 -55.33321724 104.79882876 -55.3125 102.1875 C-54.39726562 102.16171875 -53.48203125 102.1359375 -52.5390625 102.109375 C-51.35054688 102.05265625 -50.16203125 101.9959375 -48.9375 101.9375 C-47.75414062 101.89109375 -46.57078125 101.8446875 -45.3515625 101.796875 C-44.34867187 101.59578125 -43.34578125 101.3946875 -42.3125 101.1875 C-41.3225 99.2075 -41.3225 99.2075 -40.3125 97.1875 C-52.1925 97.1875 -64.0725 97.1875 -76.3125 97.1875 C-75.9825 98.5075 -75.6525 99.8275 -75.3125 101.1875 C-68.3825 101.6825 -68.3825 101.6825 -61.3125 102.1875 C-60.45810892 115.53736067 -60.19271573 128.81159026 -60.3125 142.1875 C-64.22523216 142.87798215 -67.8536381 143.24782357 -71.828125 143.109375 C-72.60414063 143.08359375 -73.38015625 143.0578125 -74.1796875 143.03125 C-75.7845138 142.96810929 -77.38880286 142.8896754 -78.9921875 142.796875 C-81.20470976 142.73767708 -83.14872584 142.71671098 -85.3125 143.1875 C-87.44566494 145.54246566 -87.44566494 145.54246566 -88.3125 148.1875 C-89.3025 147.7853125 -89.3025 147.7853125 -90.3125 147.375 C-91.3025 146.983125 -92.2925 146.59125 -93.3125 146.1875 C-94.405625 145.65125 -95.49875 145.115 -96.625 144.5625 C-104.1257063 141.71740451 -114.60747823 142.33231029 -122.3125 144.1875 C-129.47670667 135.89210281 -129.47670667 135.89210281 -129.70727539 129.97436523 C-129.74396835 129.14527145 -129.78066132 128.31617767 -129.81846619 127.46195984 C-129.86385277 126.11760612 -129.86385277 126.11760612 -129.91015625 124.74609375 C-129.94907486 123.80405594 -129.98799347 122.86201813 -130.02809143 121.89143372 C-130.15306791 118.80290968 -130.26449377 115.71407313 -130.375 112.625 C-130.45767008 110.47296249 -130.54084493 108.32094431 -130.62451172 106.16894531 C-130.82968509 100.81346779 -131.0222372 95.45762692 -131.20965576 90.10150146 C-131.3021834 87.47981176 -131.39835307 84.8582976 -131.49658203 82.23681641 C-131.78361138 74.50543613 -132.01416959 66.77618694 -132.15586853 59.04071045 C-132.2554555 53.93132886 -132.43986474 48.82872522 -132.646698 43.72262573 C-132.7941605 39.78277287 -132.89283714 35.84255847 -132.9821167 31.90100098 C-133.03514163 29.98735258 -133.10736198 28.07412688 -133.20001221 26.1619873 C-133.90846924 11.16018611 -133.90846924 11.16018611 -129.93359375 6.24707031 C-127.13246912 4.17590763 -124.47799221 2.62571475 -121.3125 1.1875 C-120.1575 0.56875 -119.0025 -0.05 -117.8125 -0.6875 C-104.69942001 -4.90241857 -90.41098038 -5.78429786 -77.765625 0.44140625 C-70.34288634 5.01211948 -65.72193219 10.81313924 -63.3125 19.1875 C-63.08544922 22.25537109 -63.08544922 22.25537109 -63.1171875 25.4609375 C-63.12363281 26.61464844 -63.13007813 27.76835938 -63.13671875 28.95703125 C-63.16185547 30.74173828 -63.16185547 30.74173828 -63.1875 32.5625 C-63.19652344 33.77550781 -63.20554687 34.98851562 -63.21484375 36.23828125 C-63.23833318 39.22143929 -63.27420179 42.20449532 -63.3125 45.1875 C-58.3625 45.1875 -53.4125 45.1875 -48.3125 45.1875 C-48.8075 43.2075 -48.8075 43.2075 -49.3125 41.1875 C-51.9525 40.8575 -54.5925 40.5275 -57.3125 40.1875 C-57.53622271 35.61629047 -57.69882695 31.04830841 -57.80688477 26.47290039 C-57.85194773 24.91960116 -57.91322454 23.3666796 -57.99145508 21.81469727 C-58.62100388 8.99741288 -58.62100388 8.99741288 -55.4909668 4.66796875 C-53.17969968 2.81486733 -50.97795687 1.4700786 -48.3125 0.1875 C-47.20261719 -0.38742188 -46.09273438 -0.96234375 -44.94921875 -1.5546875 C-43.97597656 -1.92851563 -43.00273437 -2.30234375 -42 -2.6875 C-41.01386719 -3.07679687 -40.02773438 -3.46609375 -39.01171875 -3.8671875 C-25.88789593 -8.46337436 -11.97709562 -6.55350515 0 0 Z " fill="#69452C" transform="translate(330.3125,34.8125)"/>
<path d="M0 0 C0.92039062 -0.01546875 1.84078125 -0.0309375 2.7890625 -0.046875 C13.04794354 0.01092151 20.68949351 3.38352034 28.0859375 10.4140625 C34.83741454 17.77179462 35.5557052 25.8352916 35.33984375 35.51171875 C34.53750077 49.31801055 25.17158464 60.87701746 16 70.5 C15.43410156 71.11488281 14.86820312 71.72976562 14.28515625 72.36328125 C12.58493192 74.04037327 11.09643926 75.35442952 9 76.5 C5.125 76.375 5.125 76.375 3.1328125 75.93359375 C-0.54361468 75.18618822 -4.26385561 75.42216366 -8 75.5 C-8.495 77.48 -8.495 77.48 -9 79.5 C-8.24976563 79.63535156 -7.49953125 79.77070312 -6.7265625 79.91015625 C1.34374284 81.60756304 6.63159077 84.35425497 13 89.5 C13.60392578 89.98355957 14.20785156 90.46711914 14.83007812 90.96533203 C18.95748432 94.27270371 23.05341126 97.61697032 27.13916016 100.97558594 C34.27401071 106.88805615 34.27401071 106.88805615 41.73828125 112.36328125 C44 114.5 44 114.5 44.59375 117.1640625 C44.31453584 125.98257628 43.17209279 134.11129601 38 141.5 C34.71051186 140.43091635 31.52874452 139.30083547 28.33984375 137.953125 C23.87113306 136.27774382 19.80295692 135.99983298 15.0625 136.0625 C13.87672363 136.07168457 13.87672363 136.07168457 12.66699219 136.08105469 C6.70931683 136.24087677 2.06000614 137.21325494 -3 140.5 C-4.0725 141.139375 -5.145 141.77875 -6.25 142.4375 C-9.10954091 144.58215568 -11.54802021 146.90378611 -14 149.5 C-20.71323014 147.87255027 -24.32220881 142.09708095 -27.875 136.59765625 C-33.17151692 127.61707011 -37.64965658 118.2219146 -42.09375 108.796875 C-42.46177734 108.01666992 -42.82980469 107.23646484 -43.20898438 106.43261719 C-44 104.5 -44 104.5 -44 102.5 C-45.98 102.995 -45.98 102.995 -48 103.5 C-47.43636974 107.93575776 -46.31004163 111.4044953 -44.34765625 115.4140625 C-43.81849609 116.50460938 -43.28933594 117.59515625 -42.74414062 118.71875 C-42.18919922 119.8428125 -41.63425781 120.966875 -41.0625 122.125 C-40.51142578 123.25679688 -39.96035156 124.38859375 -39.39257812 125.5546875 C-36.66913114 131.15238333 -36.66913114 131.15238333 -33.86010742 136.70727539 C-32.00988178 140.56370653 -31.88975761 144.40598119 -33 148.5 C-40.11449763 156.61114062 -52.84039643 159.87261085 -63.24804688 160.67285156 C-75.94241436 161.35943408 -85.58305127 161.02438037 -95.98046875 152.96484375 C-104.26464151 144.95615417 -102.69038533 128.21815371 -103.4375 117.375 C-103.56345674 115.60805989 -103.68960078 113.84113313 -103.81591797 112.07421875 C-105.01707577 95.05574492 -106.02450225 78.0245385 -106.99780273 60.99169922 C-107.05752762 59.95987518 -107.1172525 58.92805115 -107.17878723 57.86495972 C-107.28990555 55.94200337 -107.39910289 54.01893454 -107.50590515 52.09573364 C-107.79070729 47.18432609 -108.20396982 42.31345655 -108.7756958 37.42709351 C-110.76554504 20.3314459 -110.76554504 20.3314459 -107.53125 15.14453125 C-105.42508781 13.51894178 -103.4561468 12.51305718 -101 11.5 C-100.33742188 11.13261719 -99.67484375 10.76523437 -98.9921875 10.38671875 C-86.5889695 3.9021466 -70.59495594 2.48306412 -57.1875 6.0625 C-49.86497476 8.57712777 -45.10975995 12.13757009 -41 18.6875 C-38.29036401 29.0179872 -40.37451998 36.71804943 -44.50927734 46.26879883 C-46.83366184 51.66107321 -46.83366184 51.66107321 -47 57.5 C-45.68 57.83 -44.36 58.16 -43 58.5 C-42.86821854 57.77059708 -42.73643707 57.04119415 -42.60066223 56.28968811 C-42.04180583 53.6941611 -41.31085353 51.35102764 -40.3894043 48.86499023 C-39.89835457 47.53352211 -39.89835457 47.53352211 -39.39738464 46.17515564 C-39.0432399 45.22919022 -38.68909515 44.28322479 -38.32421875 43.30859375 C-37.95778763 42.32633316 -37.59135651 41.34407257 -37.21382141 40.33204651 C-36.43841466 38.25937113 -35.66079062 36.18752409 -34.88110352 34.11645508 C-33.6919492 30.94934966 -32.51868442 27.77664031 -31.34570312 24.60351562 C-30.58951635 22.58817568 -29.83238633 20.57318935 -29.07421875 18.55859375 C-28.7261467 17.6106041 -28.37807465 16.66261444 -28.01945496 15.68589783 C-25.89564708 10.10880266 -24.16327762 6.30154581 -18.80859375 3.25195312 C-12.41258461 0.6334881 -6.88187593 -0.11566178 0 0 Z " fill="#A9714D" transform="translate(154,34.5)"/>
<path d="M0 0 C5.66025394 4.75270267 10.54359685 9.94320047 12.5625 17.1875 C12.51342773 19.55859375 12.51342773 19.55859375 12.24609375 22.3125 C12.14466064 23.37815186 12.04322754 24.44380371 11.9387207 25.54174805 C11.81456787 26.74484619 11.69041504 27.94794434 11.5625 29.1875 C11.46260269 30.1728624 11.46260269 30.1728624 11.36068726 31.1781311 C10.82486477 36.45448668 10.260161 41.72753016 9.6875 47 C9.5997934 47.81065918 9.51208679 48.62131836 9.42172241 49.45654297 C5.5570215 85.09099073 5.5570215 85.09099073 3.5625 94.1875 C5.5425 93.5275 7.5225 92.8675 9.5625 92.1875 C11.86521081 77.48643148 13.91891291 62.78096161 15.625 48 C15.70775177 47.28328125 15.79050354 46.5665625 15.87576294 45.828125 C16.20417785 42.97937171 16.53189946 40.13053998 16.85856628 37.28158569 C17.62356745 30.62124681 18.42574191 23.96577129 19.25 17.3125 C19.36931885 16.3325708 19.4886377 15.3526416 19.61157227 14.34301758 C19.77870728 13.00146606 19.77870728 13.00146606 19.94921875 11.6328125 C20.09170044 10.48063232 20.09170044 10.48063232 20.23706055 9.30517578 C20.56168173 7.19282456 20.88774392 5.217475 21.5625 3.1875 C29.38059672 -2.30629769 40.11556344 -1.99552551 49.3125 -2.0625 C50.10422607 -2.07176514 50.89595215 -2.08103027 51.71166992 -2.09057617 C60.69448774 -2.04268033 69.04656417 0.11577095 76.5625 5.1875 C82.21548978 10.92377508 85.81368644 16.76812152 86.0625 24.9375 C85.76785476 41.59362224 79.83037818 58.12540149 74.45019531 73.72509766 C71.86465434 81.22359137 69.42879302 88.75182377 67.08203125 96.328125 C66.46426368 98.3121152 65.84642467 100.29608316 65.22851562 102.2800293 C64.3066439 105.24174437 63.38889669 108.20440184 62.48461914 111.17153931 C54.14024336 138.52666359 54.14024336 138.52666359 43.5625 145.1875 C33.41948424 150.35308307 23.05353193 151.51459451 11.8125 151.375 C10.81089844 151.37435547 9.80929687 151.37371094 8.77734375 151.37304688 C-1.39036183 151.31244466 -1.39036183 151.31244466 -5.4375 150.1875 C-5.85 149.28 -6.2625 148.3725 -6.6875 147.4375 C-8.90889498 143.31205219 -11.00105825 142.03977867 -15.1875 140.08984375 C-21.78498203 138.25809093 -28.65655787 138.8335065 -35.4375 139.1875 C-41.1144104 126.95188134 -44.90145258 114.1749671 -47.8671875 101.03125 C-48.08018997 100.08828568 -48.29319244 99.14532135 -48.51264954 98.17378235 C-50.91881607 87.30442379 -52.81656184 76.35725716 -54.625 65.375 C-54.79870117 64.33010406 -54.97240234 63.28520813 -55.15136719 62.20864868 C-57.68042698 46.92019589 -59.98220918 31.70276523 -60.4375 16.1875 C-60.48712891 15.22078369 -60.53675781 14.25406738 -60.58789062 13.25805664 C-60.62076172 12.2808667 -60.65363281 11.30367676 -60.6875 10.296875 C-60.72359375 9.41354492 -60.7596875 8.53021484 -60.796875 7.62011719 C-60.33825209 4.51568871 -59.19988969 3.36606745 -56.9375 1.25 C-41.4681501 -10.16720161 -16.01682911 -11.16687338 0 0 Z " fill="#A9714D" transform="translate(631.4375,41.8125)"/>
<path d="M0 0 C0.73894501 0.00121857 1.47789001 0.00243713 2.23922729 0.00369263 C16.32862438 0.03036261 30.41385596 0.27293509 44.5 0.5625 C45.48598175 0.5820575 46.4719635 0.60161499 47.48782349 0.62176514 C59.9900392 0.87530375 72.45727196 1.33633707 84.9375 2.125 C88.75068443 10.3663986 90.14980341 16.85968927 90.25 25.9375 C90.27900391 26.80181641 90.30800781 27.66613281 90.33789062 28.55664062 C90.40312097 35.20511806 89.18014651 40.79113614 84.41870117 45.68652344 C80.23512584 49.27044661 77.88288353 50.25043036 72.47802734 50.23852539 C71.33699554 50.23844986 70.19596375 50.23837433 69.02035522 50.23829651 C67.78387238 50.23313522 66.54738953 50.22797394 65.2734375 50.22265625 C64.01109283 50.2212413 62.74874817 50.21982635 61.44815063 50.21836853 C58.09111701 50.21371078 54.734151 50.20472408 51.37713623 50.19366455 C47.95195094 50.1834377 44.52675866 50.17886818 41.1015625 50.17382812 C34.38018957 50.16278238 27.65884869 50.14603194 20.9375 50.125 C20.6075 51.445 20.2775 52.765 19.9375 54.125 C20.77595459 54.11976318 21.61440918 54.11452637 22.47827148 54.10913086 C40.66126456 54.01117952 58.77204805 54.19191121 76.9375 55.125 C82.54007391 67.54809868 82.31195457 79.78653561 77.91015625 92.61328125 C76.9375 95.125 76.9375 95.125 75.9375 97.125 C75.34583038 97.11833817 74.75416077 97.11167633 74.14456177 97.10481262 C67.94701612 97.03807691 61.74957375 96.99304177 55.55175781 96.96020508 C53.24344735 96.94518459 50.93516512 96.92476221 48.62695312 96.89868164 C45.29550175 96.86200115 41.96443005 96.84520569 38.6328125 96.83203125 C37.61261017 96.81654739 36.59240784 96.80106354 35.54129028 96.78511047 C29.25346297 96.78365701 22.56422474 97.01264887 16.9375 100.125 C16.10274167 102.16012683 16.10274167 102.16012683 15.9375 104.125 C17.00710968 103.9118364 17.00710968 103.9118364 18.09832764 103.69436646 C25.85311304 102.26082808 33.26732363 101.85846577 41.140625 101.9296875 C42.3444281 101.9325174 43.5482312 101.93534729 44.78851318 101.93826294 C48.58828175 101.94935098 52.38780411 101.97443394 56.1875 102 C58.78254865 102.01004451 61.37760104 102.01916777 63.97265625 102.02734375 C70.29435314 102.04925292 76.61590897 102.08261514 82.9375 102.125 C83.75186868 103.89497474 84.5639294 105.66601152 85.375 107.4375 C85.82746094 108.42363281 86.27992188 109.40976563 86.74609375 110.42578125 C88.26119552 113.85835607 89.06447398 116.52668955 89.0703125 120.25 C89.07160156 121.03890625 89.07289063 121.8278125 89.07421875 122.640625 C89.07035156 123.46046875 89.06648437 124.2803125 89.0625 125.125 C89.06636719 125.94484375 89.07023438 126.7646875 89.07421875 127.609375 C89.07228516 128.79273438 89.07228516 128.79273438 89.0703125 130 C89.06918457 130.71929687 89.06805664 131.43859375 89.06689453 132.1796875 C88.9375 134.125 88.9375 134.125 87.9375 137.125 C86.82375 136.96128906 85.71 136.79757813 84.5625 136.62890625 C79.67770485 136.01830686 74.85354855 136.01341503 69.9375 136.0625 C69.06738281 136.06701172 68.19726562 136.07152344 67.30078125 136.07617188 C65.17965707 136.0878264 63.0585689 136.10575643 60.9375 136.125 C59.9475 139.095 59.9475 139.095 58.9375 142.125 C57.62308087 140.1533713 56.35035866 138.15317985 55.125 136.125 C52.05805254 131.91890063 48.95079272 130.1660116 43.9375 129.125 C37.04030894 128.42026188 32.55126649 128.9708128 26.9375 133.125 C22.52918889 137.28840494 21.40007738 142.4187322 19.9375 148.125 C18.390625 147.3825 18.390625 147.3825 16.8125 146.625 C9.42269605 143.83738712 0.95638997 144.61914649 -6.75 145.6875 C-10.0625 146.125 -10.0625 146.125 -13.0625 145.125 C-15.45504576 144.89939324 -17.85178123 144.71651405 -20.25 144.5625 C-21.52230469 144.47871094 -22.79460937 144.39492187 -24.10546875 144.30859375 C-25.08128906 144.24800781 -26.05710937 144.18742188 -27.0625 144.125 C-27.0625 144.785 -27.0625 145.445 -27.0625 146.125 C-30.02801725 144.805569 -31.99248447 143.44528447 -34.125 141 C-34.61097656 140.46117187 -35.09695313 139.92234375 -35.59765625 139.3671875 C-40.84590077 131.33387456 -40.46461222 123.16187655 -40.328125 113.93359375 C-40.31570351 112.39644427 -40.30402563 110.85928863 -40.29302979 109.3221283 C-40.1305607 91.19712981 -39.60665355 73.07596617 -39.00048828 54.96118164 C-38.83776683 50.06758084 -38.69889739 45.1735708 -38.56447983 40.27912235 C-38.45545206 36.46205506 -38.32939855 32.6456893 -38.19855499 28.82931328 C-38.13953248 27.0214047 -38.08692052 25.21327443 -38.041008 23.40498543 C-37.97609712 20.90840463 -37.88709321 18.41380033 -37.79199219 15.91821289 C-37.77148552 14.81601913 -37.77148552 14.81601913 -37.75056458 13.69155884 C-37.59593659 10.27852279 -37.29567808 8.42214809 -35.16046143 5.70115662 C-32.87843738 3.98671742 -31.0577624 3.19375859 -28.3125 2.4375 C-27.51328125 2.20675781 -26.7140625 1.97601563 -25.890625 1.73828125 C-17.28558831 -0.12772809 -8.76973312 -0.03146784 0 0 Z " fill="#69452C" transform="translate(477.0625,31.875)"/>
<path d="M0 0 C1.70639648 0.01643555 1.70639648 0.01643555 3.44726562 0.03320312 C18.31885518 0.38504108 18.31885518 0.38504108 23.80395508 5.06738281 C27.82139943 9.59028646 28.30792855 13.3527723 28.34140015 19.1907959 C28.35000061 20.30959641 28.35860107 21.42839691 28.36746216 22.58110046 C28.37172211 23.8040834 28.37598206 25.02706635 28.38037109 26.28710938 C28.39263733 28.2241851 28.39263733 28.2241851 28.40515137 30.20039368 C28.4313021 34.47732473 28.4466655 38.75426527 28.4609375 43.03125 C28.46629881 44.50465399 28.47167632 45.97805792 28.47706985 47.45146179 C28.49868254 53.57827151 28.51742127 59.70507866 28.52869225 65.83191681 C28.54494945 74.61058953 28.57818788 83.38882102 28.63509309 92.1673274 C28.67375865 98.34236649 28.69332049 104.51728734 28.69861281 110.69244432 C28.70226911 114.3804247 28.71431998 118.0679337 28.74671555 121.75578308 C28.78231417 125.8667543 28.7784341 129.97677209 28.77099609 134.08789062 C28.78740143 135.31087357 28.80380676 136.53385651 28.82070923 137.79389954 C28.75967818 146.00231657 28.75967818 146.00231657 25.84854126 149.48840332 C22.1898337 151.13706024 20.10775082 150.48909757 16.1875 149.6875 C14.50323695 149.55466529 12.81650271 149.45112669 11.12890625 149.37109375 C10.24912109 149.32919922 9.36933594 149.28730469 8.46289062 149.24414062 C7.56763672 149.20482422 6.67238281 149.16550781 5.75 149.125 C4.36651367 149.06022461 4.36651367 149.06022461 2.95507812 148.99414062 C0.69933837 148.88895069 -1.55649499 148.78680893 -3.8125 148.6875 C-4.1425 149.6775 -4.4725 150.6675 -4.8125 151.6875 C-7.46662165 151.21912559 -9.85836728 150.66960057 -12.375 149.6875 C-15.7738389 148.69874687 -18.36145851 148.62278135 -21.875 148.5625 C-27.24847846 148.21582397 -27.24847846 148.21582397 -29.6640625 145.953125 C-32.66003571 141.15255975 -33.93873712 136.86301893 -33.92602539 131.20629883 C-33.92594986 130.08536331 -33.92587433 128.9644278 -33.92579651 127.80952454 C-33.92063522 126.60007675 -33.91547394 125.39062897 -33.91015625 124.14453125 C-33.9087413 122.90579758 -33.90732635 121.6670639 -33.90586853 120.39079285 C-33.90121602 117.10118463 -33.8922339 113.8116254 -33.88116455 110.52203369 C-33.87092629 107.16378377 -33.86636574 103.80552667 -33.86132812 100.44726562 C-33.85029145 93.86065788 -33.83354767 87.27408295 -33.8125 80.6875 C-32.69427856 80.59770874 -32.69427856 80.59770874 -31.5534668 80.50610352 C-30.57031494 80.42287842 -29.58716309 80.33965332 -28.57421875 80.25390625 C-27.60186279 80.17342041 -26.62950684 80.09293457 -25.62768555 80.01000977 C-22.1612061 79.61288728 -19.11566899 78.78855633 -15.8125 77.6875 C-16.1425 76.6975 -16.4725 75.7075 -16.8125 74.6875 C-17.38355469 74.7596875 -17.95460938 74.831875 -18.54296875 74.90625 C-40.50462054 77.42014337 -40.50462054 77.42014337 -49.8125 70.6875 C-53.40775287 67.33890689 -55.61162493 64.08925013 -57.8125 59.6875 C-58.1425 63.6475 -58.4725 67.6075 -58.8125 71.6875 C-59.1425 71.6875 -59.4725 71.6875 -59.8125 71.6875 C-60.54946984 56.67565948 -60.95340482 41.7173476 -60.8125 26.6875 C-60.4825 26.6875 -60.1525 26.6875 -59.8125 26.6875 C-59.4825 28.9975 -59.1525 31.3075 -58.8125 33.6875 C-58.565 32.57375 -58.3175 31.46 -58.0625 30.3125 C-56.8125 26.6875 -56.8125 26.6875 -55.140625 25.5390625 C-52.22996774 24.47442612 -49.36509521 23.97376673 -46.3125 23.4375 C-35.69748057 21.23063525 -26.19352395 16.79156304 -18.8125 8.6875 C-18.26348022 7.70511353 -18.26348022 7.70511353 -17.70336914 6.70288086 C-13.22751832 -0.77236266 -8.19647147 -0.38155195 0 0 Z " fill="#A9714D" transform="translate(401.8125,27.3125)"/>
<path d="M0 0 C2.64590014 -0.02684679 5.29153096 -0.04676357 7.9375 -0.0625 C8.69224609 -0.07087891 9.44699219 -0.07925781 10.22460938 -0.08789062 C12.14994313 -0.09652441 14.07535581 -0.05224333 16 0 C17 1 17 1 17.09765625 3.50390625 C17.08605469 4.51324219 17.07445312 5.52257812 17.0625 6.5625 C17.05347656 7.57441406 17.04445313 8.58632812 17.03515625 9.62890625 C17.02355469 10.41136719 17.01195312 11.19382813 17 12 C19.01822917 11.90234375 21.03645833 11.8046875 23.0546875 11.70703125 C23.69664062 11.80371094 24.33859375 11.90039062 25 12 C25.66 12.99 26.32 13.98 27 15 C27.66 14.01 28.32 13.02 29 12 C34.6846397 11.19103204 41.74011973 10.55607782 46.75 13.8125 C50.93593856 17.88216248 50.93593856 17.88216248 51.13525391 21.36010742 C51.08288574 22.26607666 51.03051758 23.1720459 50.9765625 24.10546875 C50.925 25.08837891 50.8734375 26.07128906 50.8203125 27.08398438 C50.75585938 28.10814453 50.69140625 29.13230469 50.625 30.1875 C50.53992188 31.74114258 50.53992188 31.74114258 50.453125 33.32617188 C50.31163334 35.88481271 50.16022134 38.44247484 50 41 C50.66 41 51.32 41 52 41 C51.94779297 40.06994141 51.94779297 40.06994141 51.89453125 39.12109375 C51.71504476 33.24932147 52.1891149 27.69828001 53.25 21.9375 C53.48203125 20.66777344 53.7140625 19.39804688 53.953125 18.08984375 C55 15 55 15 56.7734375 13.58984375 C61.62814472 12.30377219 67.32520761 11.85440093 72.015625 13.86328125 C73.83776802 15.07951749 75.44996401 16.44996401 77 18 C77.37038317 24.45948248 76.3451192 30.22463147 74.875 36.5 C74.65126709 37.46180176 74.42753418 38.42360352 74.19702148 39.41455078 C67.5727461 66.86547497 67.5727461 66.86547497 56.8125 74.4375 C50.77206621 77.79329655 44.75948198 77.46559777 38 77 C34.59171907 75.82473071 32.79658898 74.69037711 30.125 72.375 C28.38706889 68.70603433 28.4591324 64.98977659 29 61 C30.01953125 58.71875 30.01953125 58.71875 31 57 C37.40353322 56.7638041 42.84629161 57.176679 49 59 C49 58.34 49 57.68 49 57 C47.783125 56.896875 46.56625 56.79375 45.3125 56.6875 C40.36483168 56.05049861 37.46530477 54.42220757 33.875 50.9375 C29.81638114 44.57899712 28.77704675 37.3819441 28 30 C27.505 28.515 27.505 28.515 27 27 C26.34 27 25.68 27 25 27 C24.505 28.485 24.505 28.485 24 30 C21.69 30 19.38 30 17 30 C17.33 33.96 17.66 37.92 18 42 C19.98 42.33 21.96 42.66 24 43 C24.45790104 51.73403831 24.45790104 51.73403831 22.9375 55.9375 C18.95734481 60.1744394 14.61269885 61.18121238 9 61.4375 C3.90641988 61.26693872 1.06270535 60.0677571 -3 57 C-6.92070913 52.33162076 -6.34669672 47.46348365 -6.1875 41.6875 C-6.17396484 40.75615234 -6.16042969 39.82480469 -6.14648438 38.86523438 C-6.11126882 36.57622354 -6.06202099 34.28841542 -6 32 C-5.360625 31.87625 -4.72125 31.7525 -4.0625 31.625 C-3.381875 31.41875 -2.70125 31.2125 -2 31 C-1.67 30.34 -1.34 29.68 -1 29 C-4.63 29 -8.26 29 -12 29 C-12.61276724 18.82806384 -12.61276724 18.82806384 -9.6875 14.875 C-7 13 -7 13 -4 12 C-3.00791599 9.73801919 -3.00791599 9.73801919 -2.375 7.0625 C-1.04334365 2.08668731 -1.04334365 2.08668731 0 0 Z " fill="#6E4D36" transform="translate(543,174)"/>
<path d="M0 0 C8.29947441 5.56106915 13.64881923 11.09750441 16 21 C19.23304511 46.11827357 5.26921752 74.72676327 -2.18066406 98.24560547 C-3.64930886 102.88310757 -5.10216136 107.52535341 -6.5496521 112.16949463 C-7.60650975 115.55085522 -8.67486416 118.9284961 -9.74676514 122.30511475 C-10.2416044 123.87022786 -10.73233595 125.43664677 -11.21856689 127.00445557 C-15.43251408 140.56536878 -20.47952027 153.43536152 -33.4375 160.75 C-54.18998981 170.17729297 -80.77528595 167.36464698 -102 161 C-102.23074219 162.0415625 -102.46148438 163.083125 -102.69921875 164.15625 C-110.92600614 200.61733743 -110.92600614 200.61733743 -125 210 C-128.63554581 211.2118486 -132.02407752 211.2609802 -135.8125 211.3125 C-136.51181641 211.34150391 -137.21113281 211.37050781 -137.93164062 211.40039062 C-143.08099711 211.46301142 -145.88850539 210.33481047 -150 207 C-153 203.6 -153 203.6 -153 201 C-150.23723823 201.52268466 -147.6739124 202.10869587 -145 203 C-137.40155389 203.79341204 -130.30998157 202.63293989 -124.25 197.8125 C-119.11570938 191.39463672 -115.93423438 184.93595151 -113.4375 177.125 C-113.14157959 176.22112549 -112.84565918 175.31725098 -112.54077148 174.38598633 C-109.77294633 165.71296265 -107.75477146 156.92644613 -106 148 C-102.60715212 148.47551277 -99.22169688 148.96241031 -95.84375 149.53515625 C-75.69448506 152.71290247 -54.7877664 153.24271289 -37 142 C-30.14813295 136.13876433 -26.93195723 127.38151466 -24.0625 119.0625 C-23.7231543 118.11407227 -23.7231543 118.11407227 -23.37695312 117.14648438 C-21.67712682 112.28785279 -20.21356078 107.36748719 -18.77734375 102.42578125 C-16.74178452 95.4245269 -14.59941846 88.46125345 -12.40625 81.5078125 C-11.93094093 79.99872566 -11.93094093 79.99872566 -11.44602966 78.45915222 C-10.13743316 74.30758773 -8.82716202 70.15657013 -7.51123047 66.00732422 C-4.2015372 55.56249073 -0.92480916 45.11406745 1.93359375 34.53515625 C2.24103516 33.42438217 2.24103516 33.42438217 2.5546875 32.29116821 C4.83281161 23.61183795 6.14083218 13.39182267 2 5.125 C1.01 3.578125 1.01 3.578125 0 2 C0 1.34 0 0.68 0 0 Z " fill="#020202" transform="translate(736,57)"/>
<path d="M0 0 C5.73285947 2.08644885 8.6282995 5.24263957 11.19677734 10.67285156 C12.63408796 14.83712048 12.59934151 19.00664277 12.625 23.375 C12.65044758 25.15378597 12.68390088 26.93248112 12.7265625 28.7109375 C12.73252441 29.48743652 12.73848633 30.26393555 12.74462891 31.06396484 C12.831506 33.2372161 12.831506 33.2372161 15 35 C15.46859716 39.96712985 15.16124524 43.07569556 12 47 C8.18175326 50.35542896 4.34289044 50.5747669 -0.55859375 50.4140625 C-4.69883984 49.71187676 -6.24663731 48.16636709 -9 45 C-11.36443528 39.72425325 -11.23580972 34.78481975 -11.125 29.125 C-11.11597656 28.24585938 -11.10695313 27.36671875 -11.09765625 26.4609375 C-11.07424577 24.3071729 -11.0383801 22.15354986 -11 20 C-11.99 20 -12.98 20 -14 20 C-13.505 20.99 -13.505 20.99 -13 22 C-12.8604395 23.47293881 -12.7745978 24.95120622 -12.71875 26.4296875 C-12.66267578 27.74646484 -12.66267578 27.74646484 -12.60546875 29.08984375 C-12.55326172 30.46849609 -12.55326172 30.46849609 -12.5 31.875 C-12.43087524 33.68504462 -12.35809081 35.49495402 -12.28125 37.3046875 C-12.25095703 38.10890137 -12.22066406 38.91311523 -12.18945312 39.74169922 C-12.00603752 41.9280321 -11.59581325 43.89234078 -11 46 C-15.71468169 49.95013871 -18.73822009 51.33349464 -25.00390625 51.20703125 C-28.07999318 50.88798505 -29.68785368 50.04790103 -32 48 C-35.11369145 42.19998651 -35.52338654 37.07546003 -35.6875 30.5625 C-35.73874023 29.17901367 -35.73874023 29.17901367 -35.79101562 27.76757812 C-35.87282994 25.51184049 -35.94219122 23.25645881 -36 21 C-36.66 20.67 -37.32 20.34 -38 20 C-37.84442627 20.55034912 -37.68885254 21.10069824 -37.52856445 21.66772461 C-36.49584706 26.22456028 -36.44174693 30.90892418 -36.1875 35.5625 C-36.11080078 36.61630859 -36.03410156 37.67011719 -35.95507812 38.75585938 C-35.90158203 39.76583984 -35.84808594 40.77582031 -35.79296875 41.81640625 C-35.7364917 42.73881104 -35.68001465 43.66121582 -35.62182617 44.61157227 C-36 47 -36 47 -37.82543945 48.76147461 C-42.66786748 51.51948936 -47.56033914 51.643027 -53 51 C-56.39488422 48.94892412 -57.80323081 47.29515379 -60 44 C-60.30297852 41.39624023 -60.30297852 41.39624023 -60.37890625 38.30859375 C-60.41306641 37.19935547 -60.44722656 36.09011719 -60.48242188 34.94726562 C-60.50884766 33.78904297 -60.53527344 32.63082031 -60.5625 31.4375 C-60.62227517 29.14442274 -60.68588111 26.8514411 -60.75390625 24.55859375 C-60.77783447 23.54079834 -60.8017627 22.52300293 -60.82641602 21.47436523 C-60.84119879 18.99799882 -60.84119879 18.99799882 -62 17 C-62.12227926 15.02362586 -62.17549929 13.0426169 -62.1875 11.0625 C-62.20167969 10.00160156 -62.21585938 8.94070312 -62.23046875 7.84765625 C-62 5 -62 5 -60 2 C-56.7421875 1.70703125 -56.7421875 1.70703125 -52.875 1.8125 C-50.95300781 1.85310547 -50.95300781 1.85310547 -48.9921875 1.89453125 C-48.00476563 1.92933594 -47.01734375 1.96414062 -46 2 C-44.875 5.75 -44.875 5.75 -46 8 C-45.44570313 7.57847656 -44.89140625 7.15695313 -44.3203125 6.72265625 C-43.23363281 5.90087891 -43.23363281 5.90087891 -42.125 5.0625 C-41.40570313 4.51722656 -40.68640625 3.97195312 -39.9453125 3.41015625 C-35.12797092 -0.08193273 -29.75611996 0.43538696 -24 1 C-21.24563226 2.04950119 -19.40621591 3.2500248 -17 5 C-16.21625 4.360625 -15.4325 3.72125 -14.625 3.0625 C-9.9079299 -0.64376936 -5.87203433 -0.73829671 0 0 Z " fill="#6F4D36" transform="translate(309,182)"/>
<path d="M0 0 C2.9375 1.5 2.9375 1.5 5 3 C8.87420085 3.4114002 8.87420085 3.4114002 10.8828125 1.5234375 C14.95639454 -1.40773777 20.19542935 -0.47015236 25 0 C29.76447412 1.61651801 32.24071577 3.8099758 35 8 C35.85099212 10.74099034 36.14849417 13.29172292 36.24609375 16.15234375 C36.27896484 16.92900391 36.31183594 17.70566406 36.34570312 18.50585938 C36.40674839 20.12290954 36.46405917 21.74010513 36.51757812 23.35742188 C36.70828107 27.70041156 37.18579813 30.99154606 39 35 C39.69265121 39.25255629 39.51208877 42.15871131 37.25 45.875 C33.10090329 49.79359134 29.75056503 50.40149361 24.18359375 50.24609375 C21.06618284 49.89475764 19.35170839 49.07503682 17 47 C13.45605072 41.56652493 13.46141432 36.4049295 13.3125 30.125 C13.27833984 29.15046875 13.24417969 28.1759375 13.20898438 27.171875 C13.12695707 24.78136509 13.05766152 22.39120095 13 20 C12.34 19.67 11.68 19.34 11 19 C11.13942681 22.56278089 11.28767078 26.1251426 11.4375 29.6875 C11.47681641 30.69490234 11.51613281 31.70230469 11.55664062 32.74023438 C11.59853516 33.71669922 11.64042969 34.69316406 11.68359375 35.69921875 C11.72025146 36.59471436 11.75690918 37.49020996 11.79467773 38.4128418 C12.00061751 41.00778088 12.43767822 43.46054684 13 46 C7.45575128 49.30295669 3.47923958 50.7435193 -3 50 C-6.8596418 48.32189487 -8.45367543 46.860316 -10 43 C-10.31884766 40.43457031 -10.31884766 40.43457031 -10.4140625 37.578125 C-10.45273437 36.55332031 -10.49140625 35.52851563 -10.53125 34.47265625 C-10.5621875 33.40917969 -10.593125 32.34570312 -10.625 31.25 C-10.66367187 30.17105469 -10.70234375 29.09210938 -10.7421875 27.98046875 C-10.83634631 25.32048225 -10.92197387 22.6605006 -11 20 C-11.66 19.67 -12.32 19.34 -13 19 C-12.67 28.24 -12.34 37.48 -12 47 C-18.21232408 49.6624246 -21.57145876 51.07336805 -28 50 C-33.64028777 47.07913669 -33.64028777 47.07913669 -35 43 C-35.12627568 41.14049738 -35.20150183 39.27731426 -35.24609375 37.4140625 C-35.27896484 36.31835938 -35.31183594 35.22265625 -35.34570312 34.09375 C-35.40669178 31.78915737 -35.46400904 29.48446453 -35.51757812 27.1796875 C-35.55173828 26.08140625 -35.58589844 24.983125 -35.62109375 23.8515625 C-35.65867798 22.34843506 -35.65867798 22.34843506 -35.69702148 20.81494141 C-36.01290028 17.8801449 -36.82110583 15.68968749 -38 13 C-38.58077376 8.41359544 -38.10199491 5.20398982 -36 1 C-31.05 1 -26.1 1 -21 1 C-20 4 -20 4 -21 7 C-20.44570313 6.57847656 -19.89140625 6.15695313 -19.3203125 5.72265625 C-18.23363281 4.90087891 -18.23363281 4.90087891 -17.125 4.0625 C-16.40570313 3.51722656 -15.68640625 2.97195312 -14.9453125 2.41015625 C-10.35203011 -0.91951231 -5.50611619 -0.47879271 0 0 Z " fill="#AB724C" transform="translate(361,182)"/>
<path d="M0 0 C0.06731323 1.27617188 0.06731323 1.27617188 0.13598633 2.578125 C1.13171661 21.22791757 2.28637728 39.85641661 3.75756836 58.47509766 C4.4762096 67.63914851 5.12368615 76.80309455 5.67318726 85.97903442 C5.98439402 91.16042128 6.3113935 96.34077425 6.63848877 101.5211792 C6.79496576 104.07088602 6.943809 106.6210739 7.08465576 109.17169189 C7.28411629 112.76960979 7.51057373 116.36496575 7.7421875 119.9609375 C7.79435425 121.02914734 7.846521 122.09735718 7.90026855 123.19793701 C8.49272641 131.7538655 10.82661173 139.27528776 17.1875 145.3125 C27.50084702 153.20970498 38.36984955 155.1029052 51 156 C50 158 50 158 48.1796875 158.81640625 C47.41914062 159.06261719 46.65859375 159.30882812 45.875 159.5625 C45.12992188 159.81128906 44.38484375 160.06007812 43.6171875 160.31640625 C32.44118871 163.23551041 15.56392581 164.7231132 5.00390625 159.3203125 C-2.07191872 154.65826798 -6.56978257 150.29061528 -9 142 C-9.60044705 137.53949016 -9.82868777 133.09233243 -9.98458862 128.5993042 C-10.12153735 124.68953331 -10.31986705 120.78259204 -10.5078125 116.875 C-10.54541183 116.05945648 -10.58301117 115.24391296 -10.62174988 114.40365601 C-10.99590203 106.50151972 -11.60200444 98.62426971 -12.24493408 90.74014282 C-13.57529012 74.4003768 -14.678236 58.05007285 -15.6875 41.6875 C-15.75411835 40.62416443 -15.82073669 39.56082886 -15.88937378 38.465271 C-16.0795372 35.41845862 -16.2651799 32.37140657 -16.44921875 29.32421875 C-16.50531311 28.42786209 -16.56140747 27.53150543 -16.61920166 26.60798645 C-16.87546515 22.26436119 -17.07184399 17.91983633 -17.16723633 13.56958008 C-17.1967614 12.37695305 -17.1967614 12.37695305 -17.22688293 11.16023254 C-16.80913347 7.18269235 -14.94929294 5.62871762 -12 3 C-7.76167919 0.29468885 -4.94793955 -0.12387053 0 0 Z " fill="#FCFBFB" transform="translate(36,49)"/>
<path d="M0 0 C5.79845267 0.1208011 8.95670563 1.78685659 13.1328125 5.80859375 C19.4154391 13.18213669 20.86910928 20.92330624 20.45166016 30.45996094 C20.09010211 34.97845945 19.12426557 39.18168089 17.921875 43.54296875 C17.59405533 44.75831551 17.59405533 44.75831551 17.25961304 45.99821472 C14.32874669 56.68708215 10.96531064 67.24629671 7.625 77.8125 C6.98398139 79.85208988 6.34335525 81.89180314 5.703125 83.93164062 C1.50338475 97.29867442 -2.73421487 110.65389743 -7 124 C-7.26873428 124.8419693 -7.53746857 125.6839386 -7.81434631 126.55142212 C-8.07630295 127.36912079 -8.33825958 128.18681946 -8.6081543 129.02929688 C-8.84044235 129.75515991 -9.07273041 130.48102295 -9.3120575 131.22888184 C-13.65112164 144.37089996 -20.18455243 151.51213578 -32.4375 157.75 C-40.6105175 160.61772544 -48.5701751 161.33227084 -57.1875 161.25 C-58.68555176 161.24311157 -58.68555176 161.24311157 -60.21386719 161.23608398 C-69.13762031 161.12759069 -78.46921674 160.84359442 -87 158 C-88.1875 155.9375 -88.1875 155.9375 -89 154 C-88.25540527 153.9906543 -87.51081055 153.98130859 -86.74365234 153.97167969 C-57.50101592 153.67129597 -57.50101592 153.67129597 -33 139 C-27.2013027 131.09342537 -24.38299278 122.15285142 -21.4375 112.9375 C-20.92732265 111.37202401 -20.41623371 109.80684485 -19.90429688 108.24194336 C-18.25007356 103.1674809 -16.62376348 98.08427563 -15 93 C-14.41558579 91.17478597 -13.83111236 89.34959091 -13.24658203 87.52441406 C-9.46161676 75.69430518 -5.70900769 63.85414497 -2 52 C-1.79346802 51.34140991 -1.58693604 50.68281982 -1.37414551 50.00427246 C-0.81484481 48.21840884 -0.25888117 46.4315011 0.296875 44.64453125 C0.59948242 43.67233643 0.90208984 42.7001416 1.21386719 41.69848633 C4.83255551 29.27694534 5.99457846 16.13708444 1 4 C0.64544388 2.67215255 0.30600139 1.33987016 0 0 Z " fill="#FBFAFA" transform="translate(721,48)"/>
<path d="M0 0 C0.66 0.33 1.32 0.66 2 1 C1.34 1.66 0.68 2.32 0 3 C-0.21676581 5.12330273 -0.21676581 5.12330273 -0.04467773 7.59399414 C-0.00319107 8.55808701 0.03829559 9.52217987 0.08103943 10.51548767 C0.13808548 11.5738533 0.19513153 12.63221893 0.25390625 13.72265625 C0.3064003 14.8315773 0.35889435 15.94049835 0.41297913 17.08302307 C1.02843283 29.56985152 1.83696238 42.04618558 2.67456055 54.51977539 C2.93701493 58.43027252 3.19449208 62.34107312 3.45117188 66.25195312 C4.3339801 79.60676091 5.26456878 92.95545322 6.36082458 106.29466248 C6.97252148 113.92439171 7.29570311 121.5407908 7.41654968 129.1937561 C7.56195247 136.5564654 9.73896005 143.12988349 15.125 148.3125 C16.38379053 149.25397042 17.67757022 150.15023555 19 151 C19.9590625 151.62068359 19.9590625 151.62068359 20.9375 152.25390625 C32.08619861 157.96761429 48.2450355 155.97467333 60 153 C62.01895387 152.34764934 64.02491807 151.65010483 66 150.875 C70.81751825 149 70.81751825 149 73 149 C73.495 152.465 73.495 152.465 74 156 C62.13523008 167.13970065 46.14929835 170.7487962 30.25 171.25 C19.97202788 170.90929374 9.94725325 168.04023972 1.9765625 161.28515625 C-5.0291197 153.20299118 -4.29076156 140.17589627 -4.96142578 130.00610352 C-5.0397464 128.88552551 -5.11806702 127.76494751 -5.19876099 126.6104126 C-5.45309318 122.95026449 -5.6994657 119.28963332 -5.9453125 115.62890625 C-6.12147082 113.05783257 -6.29798038 110.48678293 -6.474823 107.91575623 C-6.8430458 102.54425047 -7.20749032 97.1725086 -7.56884766 91.80053711 C-7.98416646 85.62724857 -8.40683543 79.4544965 -8.83342373 73.28197724 C-9.24683305 67.29740663 -9.65477905 61.31247825 -10.06042099 55.32737541 C-10.23209422 52.80175495 -10.405116 50.27622575 -10.57956314 47.75079536 C-11.10162161 40.16967085 -11.59287694 32.58823491 -12 25 C-12.04367455 24.1994154 -12.08734909 23.3988308 -12.13234711 22.57398605 C-12.22969474 20.57897816 -12.29041673 18.58226851 -12.34716797 16.58569336 C-12.37696747 15.57043076 -12.40676697 14.55516815 -12.43746948 13.50914001 C-11.87227497 10.2674232 -10.64039166 9.17201729 -8.125 7.125 C-4.5748503 5 -4.5748503 5 -2 5 C-1.855625 4.360625 -1.71125 3.72125 -1.5625 3.0625 C-1 1 -1 1 0 0 Z " fill="#030303" transform="translate(20,55)"/>
<path d="M0 0 C3.99887609 2.61786006 6.92806501 6.08659878 9.05859375 10.34765625 C9.48654327 14.53662371 9.46236546 18.2550975 7.99609375 22.22265625 C4.52976151 26.02444 0.62858941 27.14783862 -4.37890625 27.78515625 C-8.84452726 27.23674665 -12.08988544 25.58854108 -15.94140625 23.34765625 C-15.94140625 21.36765625 -15.94140625 19.38765625 -15.94140625 17.34765625 C-16.60140625 17.34765625 -17.26140625 17.34765625 -17.94140625 17.34765625 C-17.80011338 19.76466612 -17.65354138 22.18116054 -17.50390625 24.59765625 C-17.46458984 25.27957031 -17.42527344 25.96148437 -17.38476562 26.6640625 C-17.17474153 29.99213666 -16.92206623 33.15021027 -15.94140625 36.34765625 C-15.61140625 35.35765625 -15.28140625 34.36765625 -14.94140625 33.34765625 C-13.015625 32.21484375 -13.015625 32.21484375 -10.62890625 31.22265625 C-9.84902344 30.89007813 -9.06914062 30.5575 -8.265625 30.21484375 C-3.67636371 28.50254794 0.13537655 28.252979 5.05859375 28.34765625 C8.59561598 33.59614084 10.89011826 38.88255322 10.05859375 45.34765625 C7.42413612 49.55520729 4.54984033 51.47543217 0.12109375 53.59765625 C-0.89855469 54.0978125 -1.91820312 54.59796875 -2.96875 55.11328125 C-10.63418637 58.29630082 -19.30436317 58.6106857 -27.12890625 55.78515625 C-34.55788765 52.4190836 -39.86633406 47.69232192 -43.25 40.2421875 C-46.15668503 32.27754207 -46.60826205 21.13514876 -43.25390625 13.22265625 C-39.50352505 6.31405929 -34.66452604 1.24235654 -27.234375 -1.73828125 C-18.6338408 -4.12561814 -8.12230808 -3.82145692 0 0 Z " fill="#6F4D36" transform="translate(184.94140625,179.65234375)"/>
<path d="M0 0 C5.02941176 2.02941176 5.02941176 2.02941176 7 4 C7.13421483 6.10930593 7.20362494 8.22279256 7.24609375 10.3359375 C7.27896484 11.62757813 7.31183594 12.91921875 7.34570312 14.25 C7.39309789 16.31277738 7.43751007 18.37552843 7.47680664 20.43847656 C7.51655293 22.42531479 7.56866007 24.41189361 7.62109375 26.3984375 C7.6461499 27.59130371 7.67120605 28.78416992 7.69702148 30.01318359 C7.7830975 33.18153471 7.7830975 33.18153471 10 36 C9.73607532 40.75064417 8.92352499 44.21024538 6 48 C1.81767685 50.53257948 -2.22830929 50.84884999 -7 50 C-9.44892991 48.5685481 -10.9942314 47.05719856 -13 45 C-13.268125 45.639375 -13.53625 46.27875 -13.8125 46.9375 C-15 49 -15 49 -18 50 C-24.24937515 50.77700934 -28.83327366 50.17024933 -34.2109375 46.875 C-39.66288323 41.16117041 -40.59820232 34.81352173 -40.6875 27.1875 C-40.72961886 25.51423241 -40.77504974 23.84104402 -40.82421875 22.16796875 C-40.83541748 21.43860107 -40.84661621 20.7092334 -40.8581543 19.95776367 C-40.93463253 17.78469268 -40.93463253 17.78469268 -42 15 C-42.11854556 13.16943607 -42.17517233 11.33435694 -42.1875 9.5 C-42.20167969 8.5409375 -42.21585937 7.581875 -42.23046875 6.59375 C-42 4 -42 4 -40 1 C-37.46263729 0.6937148 -35.22083074 0.58153007 -32.6875 0.625 C-31.37136719 0.61726562 -30.05523437 0.60953125 -28.69921875 0.6015625 C-24.87259541 1.01372256 -23.01044959 1.66402272 -20 4 C-17.84250216 7.23624676 -17.71639512 8.34394066 -17.5859375 12.10546875 C-17.55032715 12.99129639 -17.5147168 13.87712402 -17.47802734 14.78979492 C-17.44402832 15.9110376 -17.4100293 17.03228027 -17.375 18.1875 C-17.25125 21.755625 -17.1275 25.32375 -17 29 C-16.67 20.42 -16.34 11.84 -16 3 C-9.84130852 -0.07934574 -6.61134667 -0.82507892 0 0 Z " fill="#6F4E37" transform="translate(442,182)"/>
<path d="M0 0 C2.73209679 0.53922963 3.65067608 1.33603357 5.375 3.46875 C4.715 4.78875 4.055 6.10875 3.375 7.46875 C4.20644531 6.83646484 4.20644531 6.83646484 5.0546875 6.19140625 C6.14136719 5.36962891 6.14136719 5.36962891 7.25 4.53125 C7.96929687 3.98597656 8.68859375 3.44070312 9.4296875 2.87890625 C14.48960211 -0.78902382 20.35068724 -0.02446859 26.375 0.46875 C31.22506024 1.72870305 33.58478772 3.38628686 36.55078125 7.44921875 C39.10948212 12.1731163 38.97079426 16.95441563 39 22.21875 C39.02551056 24.08867411 39.05901083 25.95851105 39.1015625 27.828125 C39.10752441 28.64764648 39.11348633 29.46716797 39.11962891 30.31152344 C39.24481565 32.76426605 39.24481565 32.76426605 41.375 35.46875 C41.72744351 40.29451501 41.01085398 43.66556603 38 47.46875 C33.99048412 50.52361924 30.55084494 50.86806607 25.6640625 50.8203125 C21.71454932 50.21373198 20.07298805 48.36415181 17.375 45.46875 C12.8904466 38.36058032 15.38924606 27.42519249 16.375 19.46875 C15.715 19.46875 15.055 19.46875 14.375 19.46875 C14.34586179 23.0312327 14.32815471 26.59368454 14.3125 30.15625 C14.30412109 31.16365234 14.29574219 32.17105469 14.28710938 33.20898438 C14.28388672 34.18544922 14.28066406 35.16191406 14.27734375 36.16796875 C14.27210693 37.06346436 14.26687012 37.95895996 14.26147461 38.8815918 C14.37659802 41.50516759 14.79265715 43.91168053 15.375 46.46875 C11.43936575 49.23691065 8.66703237 49.90065183 3.875 49.90625 C2.7715625 49.92558594 1.668125 49.94492188 0.53125 49.96484375 C-3.26217876 49.36859938 -4.90031036 48.11939916 -7.625 45.46875 C-8.98260599 42.75353801 -8.8227631 40.508604 -8.90625 37.47265625 C-8.94363281 36.27447266 -8.98101562 35.07628906 -9.01953125 33.84179688 C-9.05433594 32.58431641 -9.08914063 31.32683594 -9.125 30.03125 C-9.19379745 27.55326763 -9.26652884 25.07539042 -9.34375 22.59765625 C-9.37404297 21.49494385 -9.40433594 20.39223145 -9.43554688 19.25610352 C-9.51349488 16.38465306 -9.51349488 16.38465306 -10.625 13.46875 C-10.88863539 9.38240152 -10.89305169 6.38778436 -9.75 2.46875 C-6.68600636 -0.41500872 -4.07905422 -0.04856017 0 0 Z " fill="#AC734D" transform="translate(461.625,182.53125)"/>
<path d="M0 0 C5.30671374 3.32993345 9.51067168 7.89252299 11.609375 13.796875 C13.40341393 21.81927549 14.25059026 31.59499466 9.765625 38.859375 C5.60575749 43.99803487 0.82796111 47.61429016 -5.5625 49.5 C-14.67310322 50.40602684 -22.01161406 49.4772466 -29.3125 43.8125 C-33.39492169 40.45342002 -36.02046638 35.48251508 -36.96044922 30.31030273 C-37.13290189 28.04517442 -37.16955011 25.83358705 -37.125 23.5625 C-37.11404297 22.77198242 -37.10308594 21.98146484 -37.09179688 21.16699219 C-36.86205005 14.98169716 -35.88131546 10.17010667 -31.5625 5.5 C-23.33645225 -1.98986449 -10.57885633 -4.74585057 0 0 Z " fill="#AB724C" transform="translate(233.5625,185.5)"/>
<path d="M0 0 C2.64590014 -0.02684679 5.29153096 -0.04676357 7.9375 -0.0625 C8.69224609 -0.07087891 9.44699219 -0.07925781 10.22460938 -0.08789062 C12.14994313 -0.09652441 14.07535581 -0.05224333 16 0 C17 1 17 1 17.09765625 3.50390625 C17.08605469 4.51324219 17.07445312 5.52257812 17.0625 6.5625 C17.05347656 7.57441406 17.04445313 8.58632812 17.03515625 9.62890625 C17.02355469 10.41136719 17.01195312 11.19382813 17 12 C19.64 12 22.28 12 25 12 C27.10428384 17.12919186 27.21755666 21.5610835 27 27 C26.34 27 25.68 27 25 27 C24.505 28.485 24.505 28.485 24 30 C21.69 30 19.38 30 17 30 C17.33 33.96 17.66 37.92 18 42 C19.98 42.33 21.96 42.66 24 43 C24.45790104 51.73403831 24.45790104 51.73403831 22.9375 55.9375 C18.95734481 60.1744394 14.61269885 61.18121238 9 61.4375 C3.90641988 61.26693872 1.06270535 60.0677571 -3 57 C-6.92070913 52.33162076 -6.34669672 47.46348365 -6.1875 41.6875 C-6.17396484 40.75615234 -6.16042969 39.82480469 -6.14648438 38.86523438 C-6.11126882 36.57622354 -6.06202099 34.28841542 -6 32 C-5.360625 31.87625 -4.72125 31.7525 -4.0625 31.625 C-3.381875 31.41875 -2.70125 31.2125 -2 31 C-1.67 30.34 -1.34 29.68 -1 29 C-4.63 29 -8.26 29 -12 29 C-12.61276724 18.82806384 -12.61276724 18.82806384 -9.6875 14.875 C-7 13 -7 13 -4 12 C-3.00791599 9.73801919 -3.00791599 9.73801919 -2.375 7.0625 C-1.04334365 2.08668731 -1.04334365 2.08668731 0 0 Z " fill="#AB724C" transform="translate(543,174)"/>
<path d="M0 0 C3.17568542 1.65233922 5.37696485 3.75392971 7 7 C7.51368822 11.08015218 7.89771513 15.20097889 6.0234375 18.95703125 C4.1728879 21.29008612 2.48237692 22.817479 -0.3125 23.875 C-0.869375 23.91625 -1.42625 23.9575 -2 24 C-2 24.66 -2 25.32 -2 26 C1.465 25.505 1.465 25.505 5 25 C5.01981934 25.67579102 5.03963867 26.35158203 5.06005859 27.04785156 C5.15543238 30.11562044 5.26506165 33.18271998 5.375 36.25 C5.4059375 37.31347656 5.436875 38.37695312 5.46875 39.47265625 C5.50742187 40.49746094 5.54609375 41.52226562 5.5859375 42.578125 C5.63306885 43.99206543 5.63306885 43.99206543 5.68115234 45.43457031 C6.00827555 48.0665846 6.73968863 49.69678018 8 52 C8.33797952 56.84437312 7.65229503 60.17604838 4.625 64 C0.44722528 67.18306645 -2.84649147 67.35541438 -8 67 C-12.1211663 65.17901954 -14.43373926 62.66608677 -17 59 C-17.98455341 56.04633977 -18.1288842 54.10685301 -18.1328125 51.02734375 C-18.13410156 50.04443359 -18.13539063 49.06152344 -18.13671875 48.04882812 C-18.13285156 47.02208984 -18.12898438 45.99535156 -18.125 44.9375 C-18.12886719 43.93783203 -18.13273437 42.93816406 -18.13671875 41.90820312 C-18.12845092 35.54610417 -17.76582288 29.31585818 -17 23 C-16.01 22.67 -15.02 22.34 -14 22 C-14.99 20.4840625 -14.99 20.4840625 -16 18.9375 C-18.14630391 15.13547593 -18.64046744 12.40321363 -18 8 C-13.60662389 -0.02927358 -8.70594604 -1.25435171 0 0 Z " fill="#6F4E36" transform="translate(522,167)"/>
<path d="M0 0 C0.91136719 0.25652344 1.82273437 0.51304687 2.76171875 0.77734375 C6.2316583 2.15327439 8.39846628 3.29078691 11 6 C12.25566876 10.40739735 11.94478206 15.02726591 11.92578125 19.5703125 C11.90656023 27.87728872 15.33445896 34.39298688 21.0546875 40.3046875 C28.83401444 47.08426158 37.83751795 46.76286823 47.66796875 46.20654297 C53.55059416 45.68553155 59.27444383 44.41872188 65 43 C62.896203 47.90538805 59.72397595 49.76114884 55 52 C42.80096918 56.17117472 32.958777 55.95964783 21 51 C14.40107669 47.16423009 10.5219352 40.80360797 8.25 33.6328125 C7.21917251 29.38064912 6.7747833 25.3917257 7 21 C6.38253906 20.86464844 5.76507813 20.72929687 5.12890625 20.58984375 C-1.91285942 18.79992767 -6.61823771 15.82027921 -12 11 C-12.55171875 10.50628906 -13.1034375 10.01257813 -13.671875 9.50390625 C-15.0625 8.1875 -15.0625 8.1875 -17 6 C-17 5.34 -17 4.68 -17 4 C-14.92227529 3.13227971 -12.83756823 2.28126381 -10.75 1.4375 C-9.58984375 0.96183594 -8.4296875 0.48617187 -7.234375 -0.00390625 C-3.9751873 -1.00764159 -3.04675051 -1.2187002 0 0 Z " fill="#040404" transform="translate(119,198)"/>
<path d="M0 0 C0.64324219 0.3609375 1.28648437 0.721875 1.94921875 1.09375 C9.32942876 4.88387211 15.72913429 6.07782201 24 5 C24.71929687 4.63132813 25.43859375 4.26265625 26.1796875 3.8828125 C26.78039062 3.59148437 27.38109375 3.30015625 28 3 C29.67443646 3.75513801 31.34723036 4.51495545 33 5.31640625 C36.63692788 6.55949683 40.35587739 6.06427241 44 5 C44.64324219 4.46117187 45.28648437 3.92234375 45.94921875 3.3671875 C48 2 48 2 50.5078125 2.328125 C51.37148438 2.63234375 52.23515625 2.9365625 53.125 3.25 C53.99382812 3.54390625 54.86265625 3.8378125 55.7578125 4.140625 C58 5 58 5 60 6 C61.78859511 6.12207871 63.58228381 6.17548448 65.375 6.1875 C66.33148438 6.20167969 67.28796875 6.21585938 68.2734375 6.23046875 C71.06618523 5.99440555 72.57036112 5.30786944 75 4 C75.99 4 76.98 4 78 4 C78.99 6.97 78.99 6.97 80 10 C75.172273 13.83742402 71.18451108 15.08619528 65 15 C60.67169393 14.29044163 58.66974278 13.66974278 55.5625 10.5625 C54 8 54 8 54 5 C53.34 5 52.68 5 52 5 C51.9175 5.5775 51.835 6.155 51.75 6.75 C50.58302087 10.25093738 48.26813575 12.36593212 45 14 C40.08579745 14.45960168 36.13624381 14.57884119 31.6875 12.3125 C30.800625 11.879375 29.91375 11.44625 29 11 C27.32111559 11.97934924 25.65661761 12.98343919 24 14 C17.79664027 14.85746099 12.43719258 14.24140327 7 11 C3.48539823 7.70804269 0.90962064 4.81252782 0 0 Z M28 8 C29 10 29 10 29 10 Z " fill="#040303" transform="translate(404,234)"/>
<path d="M0 0 C2.49361571 1.20381448 4.68143083 2.45428722 7 4 C6.835 5.093125 6.67 6.18625 6.5 7.3125 C5.10353295 18.9976434 5.5417382 31.20619724 12.49609375 41.19140625 C18.9225026 48.91978884 26.8778204 53.96182773 37 55 C37 55.66 37 56.32 37 57 C27.87775767 57.59149986 20.53275156 57.60060731 13 52 C7.31483335 46.97567323 3.02505013 41.64128278 2 34 C1.70198296 27.99883492 1.82515298 22.0030809 2 16 C1.08992187 15.72414062 0.17984375 15.44828125 -0.7578125 15.1640625 C-4.86221414 13.69043396 -7.54336205 11.62704484 -11 9 C-9.948125 8.1646875 -9.948125 8.1646875 -8.875 7.3125 C-5.88655739 4.90875268 -2.94059762 2.46189568 0 0 Z " fill="#F8F7F6" transform="translate(128,188)"/>
<path d="M0 0 C2.0546875 1.46875 2.0546875 1.46875 4 4 C3.95648145 7.05873217 3.69838236 9.5338663 3.125 12.5 C2.97716064 13.33152588 2.82932129 14.16305176 2.67700195 15.01977539 C-3.97382112 50.18916986 -3.97382112 50.18916986 -16 60 C-16.61875 60.556875 -17.2375 61.11375 -17.875 61.6875 C-23.31624264 65.04826751 -29.73218409 65.78782159 -36 65 C-38.26953125 63.984375 -38.26953125 63.984375 -40 63 C-40 62.67 -40 62.34 -40 62 C-39.3709375 61.90203125 -38.741875 61.8040625 -38.09375 61.703125 C-28.45151776 60.01863865 -22.16524484 57.23689614 -15.8125 49.59375 C-7.14314875 37.18760942 -4.06438598 19.80394654 -1.578125 5.09765625 C-1 2 -1 2 0 0 Z " fill="#F5F4F2" transform="translate(627,196)"/>
<path d="M0 0 C0.35449219 0.433125 0.70898438 0.86625 1.07421875 1.3125 C3.92177327 4.29105581 5.96479074 5.84413411 10.11328125 6.46875 C14.88646436 6.51279321 19.42260648 6.37295455 24 4.9375 C27.93000414 3.7093737 30.3779092 4.1889546 34 6 C39.74637225 6.35717853 45.33884488 5.98454872 51 5 C51.495 7.475 51.495 7.475 52 10 C46.06285095 13.47267209 42.10478224 15.48168015 35 15 C30.82089868 13.39265334 28.37058485 11.81927559 26 8 C25.690625 8.8971875 25.690625 8.8971875 25.375 9.8125 C23.34331555 13.04472526 21.61210496 13.73259475 18 15 C12.59405728 15.66670616 8.37368679 15.67479351 3.4375 13.25 C1.16110899 11.14871599 -0.08560381 9.92606781 -1 7 C-1 5.68 -1 4.36 -1 3 C-1.66 2.67 -2.32 2.34 -3 2 C-2.01 1.34 -1.02 0.68 0 0 Z " fill="#060505" transform="translate(243,234)"/>
<path d="M0 0 C0.61488281 0.42152344 1.22976562 0.84304687 1.86328125 1.27734375 C2.67152344 1.82519531 3.47976562 2.37304688 4.3125 2.9375 C5.11300781 3.48277344 5.91351563 4.02804688 6.73828125 4.58984375 C14.7304412 9.57286576 27.20954159 7.39967093 36 5.5 C38.00413947 5.01685924 40.00600228 4.5234244 42 4 C38.11026152 10.71561686 34.10984419 13.45649386 26.67578125 15.4609375 C18.29741572 17.1488418 9.54316042 16.33276794 2.109375 11.86328125 C-1.14658704 9.35808716 -2.87606219 6.93378235 -4 3 C-2.68 2.01 -1.36 1.02 0 0 Z " fill="#050505" transform="translate(194,235)"/>
<path d="M0 0 C0.66 0.33 1.32 0.66 2 1 C0.49212016 6.73729889 -0.6093844 10.8445177 -6 14 C-10.67980464 15.87192186 -15.64719442 15.54632533 -20.25 13.6875 C-24.65229485 10.98609179 -24.65229485 10.98609179 -26 9 C-26.6875 5.3125 -26.6875 5.3125 -27 2 C-23 4 -23 4 -21.1640625 5.046875 C-17.24465866 6.77311063 -13.19097787 6.55614872 -9 6 C-5.57776469 4.27589884 -5.57776469 4.27589884 -3 2 C-2.01 1.34 -1.02 0.68 0 0 Z " fill="#050404" transform="translate(402,233)"/>
<path d="M0 0 C1.65 0.66 3.3 1.32 5 2 C5 6.12847617 3.54007931 7.79147876 1 11 C-3.55053623 14.35872912 -7.28032263 14.27185713 -12.6640625 13.50390625 C-15.70561781 12.84778479 -17.65080902 12.06444056 -20 10 C-21.8125 6.8125 -21.8125 6.8125 -23 4 C-21.8553125 4.2475 -21.8553125 4.2475 -20.6875 4.5 C-12.11082733 5.91736621 -12.11082733 5.91736621 -3.95703125 3.8828125 C-2.1212469 2.39759947 -2.1212469 2.39759947 0 0 Z " fill="#050404" transform="translate(535,236)"/>
<path d="M0 0 C2.49361571 1.20381448 4.68143083 2.45428722 7 4 C13.1758903 4.60600367 19.25823081 4.55189742 25 2 C25.33 4.31 25.66 6.62 26 9 C19.92583074 12.59950771 15.08272509 14.15079453 8 13 C3.93273134 11.15124152 1.9224902 9.35238976 0.0625 5.375 C-1 2 -1 2 0 0 Z " fill="#050404" transform="translate(323,235)"/>
<path d="M0 0 C3.37462715 0.54723683 5.08235 1.0549 8 3 C14.67140297 3.81799049 20.08994881 3.1520273 26 0 C26.8125 3.25 26.8125 3.25 27 7 C23.01037303 11.33159499 19.77368577 11.88556866 14.125 12.25 C10.02305756 12.15088243 7.36168619 11.52126464 4 9 C2.34751434 6.10558412 1.11762611 3.13592737 0 0 Z " fill="#040404" transform="translate(348,236)"/>
<path d="M0 0 C2.6875 0.6875 2.6875 0.6875 5 2 C5.33 2.66 5.66 3.32 6 4 C5.07038578 5.15224028 4.1309875 6.29659176 3.1875 7.4375 C2.66542969 8.07558594 2.14335937 8.71367187 1.60546875 9.37109375 C-1.12787782 12.14434319 -4.10102753 12.20417745 -7.8125 12.3125 C-12.65483211 12.24897086 -15.35747097 11.37600252 -19 8 C-20.875 4.75 -20.875 4.75 -22 2 C-20.88625 2.2475 -20.88625 2.2475 -19.75 2.5 C-16.41730589 2.94435921 -13.23232924 3.16791371 -9.875 3.25 C-8.35519531 3.28867188 -8.35519531 3.28867188 -6.8046875 3.328125 C-3.61294246 2.9547175 -2.45552011 1.96548139 0 0 Z " fill="#060505" transform="translate(505,237)"/>
<path d="M0 0 C2.61404679 0.27516282 4.56594448 0.75092173 6.8515625 2.0625 C9.49575008 3.21632731 11.15024085 3.08015502 14 2.75 C14.845625 2.66234375 15.69125 2.5746875 16.5625 2.484375 C19.02209617 1.99560909 20.78081884 1.12808376 23 0 C23.99 0 24.98 0 26 0 C25.58565093 4.83407252 23.62206046 6.89537674 20 10 C14.82303035 11.72565655 9.23190147 11.87335275 4.125 9.875 C1.49198774 7.55175389 -0.19983626 5.0002729 -2 2 C-1.34 1.34 -0.68 0.68 0 0 Z " fill="#040403" transform="translate(296,237)"/>
<path d="M0 0 C0.33 0 0.66 0 1 0 C1.67707648 12.34584137 2.1574163 24.63407511 2 37 C-0.91818717 35.88739302 -2.11514783 35.40575435 -4 33 C-4.90425688 28.35483396 -4.74379186 23.7785368 -4.625 19.0625 C-4.63144531 17.78697266 -4.63789063 16.51144531 -4.64453125 15.19726562 C-4.52320883 4.68081763 -4.52320883 4.68081763 0 0 Z " fill="#FCFAF8" transform="translate(189,95)"/>
<path d="M0 0 C1.06309567 5.17317421 1.11693938 10.12369336 1.0625 15.375 C1.05798828 16.20644531 1.05347656 17.03789063 1.04882812 17.89453125 C1.03713164 19.92971897 1.01919935 21.96486923 1 24 C-1.97 22.02 -4.94 20.04 -8 18 C-7.67 17.34 -7.34 16.68 -7 16 C-7.08265011 14.41539781 -7.19025146 12.83203996 -7.3125 11.25 C-7.36502065 8.23006241 -7.36355702 6.55847615 -5.703125 4.0078125 C-1.67613636 0 -1.67613636 0 0 0 Z " fill="#0C0B0A" transform="translate(184,103)"/>
<path d="M0 0 C3.10841719 0.16192935 6.20901637 0.38747707 9.3125 0.625 C10.19357422 0.67011719 11.07464844 0.71523437 11.98242188 0.76171875 C14.4629044 0.96921158 16.63665465 1.2139246 19 2 C20.99723042 4.80872108 22 6.54467197 22 10 C15.86764018 10.38327249 10.40216657 10.19432458 5 7 C2.97481442 5.11244839 1.59752179 3.29643758 0 1 C0 0.67 0 0.34 0 0 Z " fill="#070606" transform="translate(546,241)"/>
<path d="M0 0 C3.465 1.485 3.465 1.485 7 3 C7 20.16 7 37.32 7 55 C6.67 55 6.34 55 6 55 C6 41.47 6 27.94 6 14 C3.03 13.505 3.03 13.505 0 13 C0 8.71 0 4.42 0 0 Z " fill="#2A221D" transform="translate(352,108)"/>
<path d="M0 0 C4.52208368 4.52208368 4.14388237 11.28703622 4.1875 17.3125 C4.16809267 20.90285639 4.13599173 23.59202481 3 27 C1.02 27 -0.96 27 -3 27 C-2.01 18.09 -1.02 9.18 0 0 Z " fill="#F2EFED" transform="translate(575,153)"/>
<path d="M0 0 C0.73863281 0.47050781 1.47726563 0.94101563 2.23828125 1.42578125 C9.01316193 5.58368134 15.2093369 8.38972515 23 10 C23 10.33 23 10.66 23 11 C14.58047345 11.4257064 8.1668224 11.73280724 1 7 C-0.02080237 6.02124441 -1.02681148 5.02611116 -2 4 C-1.34 2.68 -0.68 1.36 0 0 Z " fill="#F3F0EF" transform="translate(197,232)"/>
<path d="M0 0 C2.72755904 5.05725574 4.03759016 10.56786796 5.625 16.0625 C5.94984375 17.16400391 6.2746875 18.26550781 6.609375 19.40039062 C6.91617188 20.45548828 7.22296875 21.51058594 7.5390625 22.59765625 C7.81959473 23.56195557 8.10012695 24.52625488 8.38916016 25.51977539 C9 28 9 28 9 31 C6.69 31 4.38 31 2 31 C2.03480469 29.91203125 2.06960938 28.8240625 2.10546875 27.703125 C2.28518011 19.45427934 2.02558666 12.19378445 -0.44140625 4.22265625 C-1 2 -1 2 0 0 Z " fill="#191613" transform="translate(576,149)"/>
<path d="M0 0 C3.41051251 6.52988371 3.6237456 13.73706393 3 21 C1.98828125 23.83984375 1.98828125 23.83984375 1 26 C-1.125 24.625 -1.125 24.625 -3 22 C-2.82743806 19.52816678 -2.25817327 17.28462183 -1.65234375 14.8828125 C-0.54421356 9.98580602 -0.32648519 5.00037842 0 0 Z " fill="#F8F3F0" transform="translate(567,104)"/>
<path d="M0 0 C0.66 0.33 1.32 0.66 2 1 C1.69025617 3.89094238 0.95829554 5.04691751 -1 7.25 C-5.06924552 9.62372655 -8.40051313 9.36074407 -13 9 C-11.42038699 5.84077398 -8.39906086 5.3738893 -5.2265625 4.09765625 C-2.98521164 2.9927096 -1.6425838 1.85982875 0 0 Z " fill="#F7F5F3" transform="translate(533,233)"/>
<path d="M0 0 C0.33 0 0.66 0 1 0 C1.70005804 3.26827607 2.38286244 6.53992176 3.0625 9.8125 C3.26166016 10.74126953 3.46082031 11.67003906 3.66601562 12.62695312 C3.84970703 13.51962891 4.03339844 14.41230469 4.22265625 15.33203125 C4.39547119 16.15421143 4.56828613 16.9763916 4.74633789 17.82348633 C5 20 5 20 4 23 C0.1053528 15.43325686 -2.20506497 10.02532485 -0.5 1.5 C-0.335 1.005 -0.17 0.51 0 0 Z " fill="#181412" transform="translate(570,121)"/>
<path d="M0 0 C0.66 0 1.32 0 2 0 C3.50156874 3.00313748 3.09281204 5.79067522 3.0625 9.125 C3.05347656 10.40632812 3.04445312 11.68765625 3.03515625 13.0078125 C3.02355469 13.99523437 3.01195312 14.98265625 3 16 C2.01 16 1.02 16 0 16 C0 10.72 0 5.44 0 0 Z " fill="#D3A686" transform="translate(220,201)"/>
<path d="M0 0 C1.51815699 0.00015911 3.0363194 0.00585313 4.55444336 0.01586914 C5.35208603 0.01728409 6.1497287 0.01869904 6.97154236 0.02015686 C9.52916146 0.02577223 12.08669429 0.03832727 14.64428711 0.05102539 C16.37410356 0.05603841 18.10392137 0.06060166 19.83374023 0.06469727 C24.08312264 0.07574664 28.33244023 0.09302153 32.58178711 0.11352539 C32.58178711 0.44352539 32.58178711 0.77352539 32.58178711 1.11352539 C31.57801025 1.12287109 30.5742334 1.1322168 29.54003906 1.1418457 C25.80294001 1.1818277 22.06665713 1.24760795 18.33007812 1.32104492 C16.71527622 1.34920725 15.10033768 1.37044539 13.48535156 1.38452148 C11.15871474 1.40601797 8.83371233 1.4526975 6.50756836 1.50415039 C5.78966629 1.50537903 5.07176422 1.50660767 4.33210754 1.50787354 C-0.50674267 1.6481228 -2.96912202 2.73794456 -6.41821289 6.11352539 C-4.11947842 0.13681576 -4.11947842 0.13681576 0 0 Z " fill="#AC8C75" transform="translate(386.418212890625,18.886474609375)"/>
<path d="M0 0 C0.47308594 0.40992188 0.94617188 0.81984375 1.43359375 1.2421875 C6.43490414 5.3173293 10.61421966 7.14264986 17 8 C17 8.33 17 8.66 17 9 C6.19483006 9.62039253 6.19483006 9.62039253 1.75 7.3125 C-0.33016249 4.56371385 -0.15537189 3.34604465 0 0 Z " fill="#F1EFEE" transform="translate(245,232)"/>
<path d="M0 0 C0.99 0.33 1.98 0.66 3 1 C0.49447774 3.61940964 -0.85347491 4.95696227 -4.6015625 5.09765625 C-6.09816406 5.08025391 -6.09816406 5.08025391 -7.625 5.0625 C-8.62789063 5.05347656 -9.63078125 5.04445312 -10.6640625 5.03515625 C-11.43492187 5.02355469 -12.20578125 5.01195312 -13 5 C-13.33 4.34 -13.66 3.68 -14 3 C-13.15695312 2.86722656 -12.31390625 2.73445312 -11.4453125 2.59765625 C-10.34960938 2.42105469 -9.25390625 2.24445313 -8.125 2.0625 C-6.48917969 1.80146484 -6.48917969 1.80146484 -4.8203125 1.53515625 C-2.06178454 1.14448841 -2.06178454 1.14448841 0 0 Z " fill="#E6E1DE" transform="translate(477,236)"/>
<path d="M0 0 C3.3 0 6.6 0 10 0 C9.67 0.99 9.34 1.98 9 3 C7.68 3 6.36 3 5 3 C5 8.28 5 13.56 5 19 C4.67 19 4.34 19 4 19 C4 13.06 4 7.12 4 1 C2.68 0.67 1.36 0.34 0 0 Z " fill="#CB9C7B" transform="translate(532,203)"/>
<path d="M0 0 C0.928125 0.4640625 0.928125 0.4640625 1.875 0.9375 C6.18802294 2.4039278 10.4759996 2.66619026 15 3 C12.50959058 5.49040942 11.56845643 5.32391014 8.125 5.375 C4.45820608 5.32201165 3.36889116 5.28105993 0.375 3 C-0.07875 2.34 -0.5325 1.68 -1 1 C-0.67 0.67 -0.34 0.34 0 0 Z " fill="#EEE9E5" transform="translate(274,236)"/>
<path d="M0 0 C1.43473929 2.6802822 2.39715699 5.14749077 3.0703125 8.109375 C3.33134766 9.24052734 3.33134766 9.24052734 3.59765625 10.39453125 C3.77167969 11.17183594 3.94570313 11.94914063 4.125 12.75 C4.30675781 13.54277344 4.48851562 14.33554688 4.67578125 15.15234375 C5.12175014 17.10052366 5.56149151 19.05012731 6 21 C5.01 20.67 4.02 20.34 3 20 C2.27636719 18.26586914 2.27636719 18.26586914 1.796875 16.03515625 C1.6215625 15.23529297 1.44625 14.43542969 1.265625 13.61132812 C1.09546875 12.77021484 0.9253125 11.92910156 0.75 11.0625 C0.564375 10.22525391 0.37875 9.38800781 0.1875 8.52539062 C-1.1392663 2.27853261 -1.1392663 2.27853261 0 0 Z " fill="#342D28" transform="translate(576,149)"/>
<path d="M0 0 C0.66 0.33 1.32 0.66 2 1 C0.25 4.875 0.25 4.875 -2 6 C-3.87379605 6.07033769 -5.75001102 6.0843022 -7.625 6.0625 C-8.62789063 6.05347656 -9.63078125 6.04445312 -10.6640625 6.03515625 C-11.43492187 6.02355469 -12.20578125 6.01195312 -13 6 C-13 5.67 -13 5.34 -13 5 C-12.31292969 4.80664062 -11.62585938 4.61328125 -10.91796875 4.4140625 C-10.01691406 4.15367187 -9.11585938 3.89328125 -8.1875 3.625 C-7.29417969 3.36976563 -6.40085937 3.11453125 -5.48046875 2.8515625 C-2.79532104 2.04733339 -2.79532104 2.04733339 0 0 Z " fill="#F2F0EE" transform="translate(503,235)"/>
<path d="M0 0 C4.95 0.99 9.9 1.98 15 3 C11.71921451 5.18719033 11.19409949 5.21791927 7.5 4.75 C6.7265625 4.66234375 5.953125 4.5746875 5.15625 4.484375 C3 4 3 4 0 2 C0 1.34 0 0.68 0 0 Z " fill="#E0DCD9" transform="translate(299,236)"/>
<path d="M0 0 C0.66 0.33 1.32 0.66 2 1 C0.62354341 2.53839266 -0.77695032 4.05530581 -2.1875 5.5625 C-2.96480469 6.40941406 -3.74210937 7.25632812 -4.54296875 8.12890625 C-7 10 -7 10 -9.80078125 9.77734375 C-10.52652344 9.52082031 -11.25226562 9.26429687 -12 9 C-10 7 -10 7 -7.6875 5.625 C-4.91856109 3.95075787 -2.48889725 2.06222915 0 0 Z " fill="#927E6F" transform="translate(44,40)"/>
<path d="M0 0 C0 0.99 0 1.98 0 3 C-4.22949995 5.41685712 -7.12335991 6.34833144 -12 6 C-12.33 5.34 -12.66 4.68 -13 4 C-12.14535156 3.79503906 -11.29070312 3.59007812 -10.41015625 3.37890625 C-9.30542969 3.10949219 -8.20070313 2.84007812 -7.0625 2.5625 C-5.40927734 2.16224609 -5.40927734 2.16224609 -3.72265625 1.75390625 C-1.10578746 1.27004275 -1.10578746 1.27004275 0 0 Z " fill="#DDDAD7" transform="translate(451,235)"/>
<path d="M0 0 C0 1.32 0 2.64 0 4 C-2.97 4 -5.94 4 -9 4 C-6.43425105 1.43425105 -3.68548192 0 0 0 Z " fill="#FBF7F5" transform="translate(565,239)"/>
</svg>
